<?xml version="1.0" encoding="utf-8" standalone="no"?>
<!DOCTYPE svg PUBLIC "-//W3C//DTD SVG 1.1//EN"
  "http://www.w3.org/Graphics/SVG/1.1/DTD/svg11.dtd">
<!-- Created with matplotlib (https://matplotlib.org/) -->
<svg height="345.6pt" version="1.1" viewBox="0 0 460.8 345.6" width="460.8pt" xmlns="http://www.w3.org/2000/svg" xmlns:xlink="http://www.w3.org/1999/xlink">
 <metadata>
  <rdf:RDF xmlns:cc="http://creativecommons.org/ns#" xmlns:dc="http://purl.org/dc/elements/1.1/" xmlns:rdf="http://www.w3.org/1999/02/22-rdf-syntax-ns#">
   <cc:Work>
    <dc:type rdf:resource="http://purl.org/dc/dcmitype/StillImage"/>
    <dc:date>2021-08-19T22:07:21.568404</dc:date>
    <dc:format>image/svg+xml</dc:format>
    <dc:creator>
     <cc:Agent>
      <dc:title>Matplotlib v3.3.4, https://matplotlib.org/</dc:title>
     </cc:Agent>
    </dc:creator>
   </cc:Work>
  </rdf:RDF>
 </metadata>
 <defs>
  <style type="text/css">*{stroke-linecap:butt;stroke-linejoin:round;}</style>
 </defs>
 <g id="figure_1">
  <g id="patch_1">
   <path d="M 0 345.6 
L 460.8 345.6 
L 460.8 0 
L 0 0 
z
" style="fill:#ffffff;"/>
  </g>
  <g id="axes_1">
   <g id="patch_2">
    <path d="M 57.6 307.584 
L 414.72 307.584 
L 414.72 41.472 
L 57.6 41.472 
z
" style="fill:#ffffff;"/>
   </g>
   <g id="matplotlib.axis_1">
    <g id="xtick_1">
     <g id="line2d_1">
      <path clip-path="url(#p29f779e632)" d="M 73.198636 307.584 
L 73.198636 41.472 
" style="fill:none;stroke:#b0b0b0;stroke-linecap:square;stroke-width:0.8;"/>
     </g>
     <g id="line2d_2">
      <defs>
       <path d="M 0 0 
L 0 3.5 
" id="m9e39197a33" style="stroke:#000000;stroke-width:0.8;"/>
      </defs>
      <g>
       <use style="stroke:#000000;stroke-width:0.8;" x="73.198636" xlink:href="#m9e39197a33" y="307.584"/>
      </g>
     </g>
     <g id="text_1">
      <!-- 0 -->
      <g transform="translate(70.017386 322.182437)scale(0.1 -0.1)">
       <defs>
        <path d="M 31.78125 66.40625 
Q 24.171875 66.40625 20.328125 58.90625 
Q 16.5 51.421875 16.5 36.375 
Q 16.5 21.390625 20.328125 13.890625 
Q 24.171875 6.390625 31.78125 6.390625 
Q 39.453125 6.390625 43.28125 13.890625 
Q 47.125 21.390625 47.125 36.375 
Q 47.125 51.421875 43.28125 58.90625 
Q 39.453125 66.40625 31.78125 66.40625 
z
M 31.78125 74.21875 
Q 44.046875 74.21875 50.515625 64.515625 
Q 56.984375 54.828125 56.984375 36.375 
Q 56.984375 17.96875 50.515625 8.265625 
Q 44.046875 -1.421875 31.78125 -1.421875 
Q 19.53125 -1.421875 13.0625 8.265625 
Q 6.59375 17.96875 6.59375 36.375 
Q 6.59375 54.828125 13.0625 64.515625 
Q 19.53125 74.21875 31.78125 74.21875 
z
" id="DejaVuSans-48"/>
       </defs>
       <use xlink:href="#DejaVuSans-48"/>
      </g>
     </g>
    </g>
    <g id="xtick_2">
     <g id="line2d_3">
      <path clip-path="url(#p29f779e632)" d="M 136.607727 307.584 
L 136.607727 41.472 
" style="fill:none;stroke:#b0b0b0;stroke-linecap:square;stroke-width:0.8;"/>
     </g>
     <g id="line2d_4">
      <g>
       <use style="stroke:#000000;stroke-width:0.8;" x="136.607727" xlink:href="#m9e39197a33" y="307.584"/>
      </g>
     </g>
     <g id="text_2">
      <!-- 100 -->
      <g transform="translate(127.063977 322.182437)scale(0.1 -0.1)">
       <defs>
        <path d="M 12.40625 8.296875 
L 28.515625 8.296875 
L 28.515625 63.921875 
L 10.984375 60.40625 
L 10.984375 69.390625 
L 28.421875 72.90625 
L 38.28125 72.90625 
L 38.28125 8.296875 
L 54.390625 8.296875 
L 54.390625 0 
L 12.40625 0 
z
" id="DejaVuSans-49"/>
       </defs>
       <use xlink:href="#DejaVuSans-49"/>
       <use x="63.623047" xlink:href="#DejaVuSans-48"/>
       <use x="127.246094" xlink:href="#DejaVuSans-48"/>
      </g>
     </g>
    </g>
    <g id="xtick_3">
     <g id="line2d_5">
      <path clip-path="url(#p29f779e632)" d="M 200.016818 307.584 
L 200.016818 41.472 
" style="fill:none;stroke:#b0b0b0;stroke-linecap:square;stroke-width:0.8;"/>
     </g>
     <g id="line2d_6">
      <g>
       <use style="stroke:#000000;stroke-width:0.8;" x="200.016818" xlink:href="#m9e39197a33" y="307.584"/>
      </g>
     </g>
     <g id="text_3">
      <!-- 200 -->
      <g transform="translate(190.473068 322.182437)scale(0.1 -0.1)">
       <defs>
        <path d="M 19.1875 8.296875 
L 53.609375 8.296875 
L 53.609375 0 
L 7.328125 0 
L 7.328125 8.296875 
Q 12.9375 14.109375 22.625 23.890625 
Q 32.328125 33.6875 34.8125 36.53125 
Q 39.546875 41.84375 41.421875 45.53125 
Q 43.3125 49.21875 43.3125 52.78125 
Q 43.3125 58.59375 39.234375 62.25 
Q 35.15625 65.921875 28.609375 65.921875 
Q 23.96875 65.921875 18.8125 64.3125 
Q 13.671875 62.703125 7.8125 59.421875 
L 7.8125 69.390625 
Q 13.765625 71.78125 18.9375 73 
Q 24.125 74.21875 28.421875 74.21875 
Q 39.75 74.21875 46.484375 68.546875 
Q 53.21875 62.890625 53.21875 53.421875 
Q 53.21875 48.921875 51.53125 44.890625 
Q 49.859375 40.875 45.40625 35.40625 
Q 44.1875 33.984375 37.640625 27.21875 
Q 31.109375 20.453125 19.1875 8.296875 
z
" id="DejaVuSans-50"/>
       </defs>
       <use xlink:href="#DejaVuSans-50"/>
       <use x="63.623047" xlink:href="#DejaVuSans-48"/>
       <use x="127.246094" xlink:href="#DejaVuSans-48"/>
      </g>
     </g>
    </g>
    <g id="xtick_4">
     <g id="line2d_7">
      <path clip-path="url(#p29f779e632)" d="M 263.425909 307.584 
L 263.425909 41.472 
" style="fill:none;stroke:#b0b0b0;stroke-linecap:square;stroke-width:0.8;"/>
     </g>
     <g id="line2d_8">
      <g>
       <use style="stroke:#000000;stroke-width:0.8;" x="263.425909" xlink:href="#m9e39197a33" y="307.584"/>
      </g>
     </g>
     <g id="text_4">
      <!-- 300 -->
      <g transform="translate(253.882159 322.182437)scale(0.1 -0.1)">
       <defs>
        <path d="M 40.578125 39.3125 
Q 47.65625 37.796875 51.625 33 
Q 55.609375 28.21875 55.609375 21.1875 
Q 55.609375 10.40625 48.1875 4.484375 
Q 40.765625 -1.421875 27.09375 -1.421875 
Q 22.515625 -1.421875 17.65625 -0.515625 
Q 12.796875 0.390625 7.625 2.203125 
L 7.625 11.71875 
Q 11.71875 9.328125 16.59375 8.109375 
Q 21.484375 6.890625 26.8125 6.890625 
Q 36.078125 6.890625 40.9375 10.546875 
Q 45.796875 14.203125 45.796875 21.1875 
Q 45.796875 27.640625 41.28125 31.265625 
Q 36.765625 34.90625 28.71875 34.90625 
L 20.21875 34.90625 
L 20.21875 43.015625 
L 29.109375 43.015625 
Q 36.375 43.015625 40.234375 45.921875 
Q 44.09375 48.828125 44.09375 54.296875 
Q 44.09375 59.90625 40.109375 62.90625 
Q 36.140625 65.921875 28.71875 65.921875 
Q 24.65625 65.921875 20.015625 65.03125 
Q 15.375 64.15625 9.8125 62.3125 
L 9.8125 71.09375 
Q 15.4375 72.65625 20.34375 73.4375 
Q 25.25 74.21875 29.59375 74.21875 
Q 40.828125 74.21875 47.359375 69.109375 
Q 53.90625 64.015625 53.90625 55.328125 
Q 53.90625 49.265625 50.4375 45.09375 
Q 46.96875 40.921875 40.578125 39.3125 
z
" id="DejaVuSans-51"/>
       </defs>
       <use xlink:href="#DejaVuSans-51"/>
       <use x="63.623047" xlink:href="#DejaVuSans-48"/>
       <use x="127.246094" xlink:href="#DejaVuSans-48"/>
      </g>
     </g>
    </g>
    <g id="xtick_5">
     <g id="line2d_9">
      <path clip-path="url(#p29f779e632)" d="M 326.835 307.584 
L 326.835 41.472 
" style="fill:none;stroke:#b0b0b0;stroke-linecap:square;stroke-width:0.8;"/>
     </g>
     <g id="line2d_10">
      <g>
       <use style="stroke:#000000;stroke-width:0.8;" x="326.835" xlink:href="#m9e39197a33" y="307.584"/>
      </g>
     </g>
     <g id="text_5">
      <!-- 400 -->
      <g transform="translate(317.29125 322.182437)scale(0.1 -0.1)">
       <defs>
        <path d="M 37.796875 64.3125 
L 12.890625 25.390625 
L 37.796875 25.390625 
z
M 35.203125 72.90625 
L 47.609375 72.90625 
L 47.609375 25.390625 
L 58.015625 25.390625 
L 58.015625 17.1875 
L 47.609375 17.1875 
L 47.609375 0 
L 37.796875 0 
L 37.796875 17.1875 
L 4.890625 17.1875 
L 4.890625 26.703125 
z
" id="DejaVuSans-52"/>
       </defs>
       <use xlink:href="#DejaVuSans-52"/>
       <use x="63.623047" xlink:href="#DejaVuSans-48"/>
       <use x="127.246094" xlink:href="#DejaVuSans-48"/>
      </g>
     </g>
    </g>
    <g id="xtick_6">
     <g id="line2d_11">
      <path clip-path="url(#p29f779e632)" d="M 390.244091 307.584 
L 390.244091 41.472 
" style="fill:none;stroke:#b0b0b0;stroke-linecap:square;stroke-width:0.8;"/>
     </g>
     <g id="line2d_12">
      <g>
       <use style="stroke:#000000;stroke-width:0.8;" x="390.244091" xlink:href="#m9e39197a33" y="307.584"/>
      </g>
     </g>
     <g id="text_6">
      <!-- 500 -->
      <g transform="translate(380.700341 322.182437)scale(0.1 -0.1)">
       <defs>
        <path d="M 10.796875 72.90625 
L 49.515625 72.90625 
L 49.515625 64.59375 
L 19.828125 64.59375 
L 19.828125 46.734375 
Q 21.96875 47.46875 24.109375 47.828125 
Q 26.265625 48.1875 28.421875 48.1875 
Q 40.625 48.1875 47.75 41.5 
Q 54.890625 34.8125 54.890625 23.390625 
Q 54.890625 11.625 47.5625 5.09375 
Q 40.234375 -1.421875 26.90625 -1.421875 
Q 22.3125 -1.421875 17.546875 -0.640625 
Q 12.796875 0.140625 7.71875 1.703125 
L 7.71875 11.625 
Q 12.109375 9.234375 16.796875 8.0625 
Q 21.484375 6.890625 26.703125 6.890625 
Q 35.15625 6.890625 40.078125 11.328125 
Q 45.015625 15.765625 45.015625 23.390625 
Q 45.015625 31 40.078125 35.4375 
Q 35.15625 39.890625 26.703125 39.890625 
Q 22.75 39.890625 18.8125 39.015625 
Q 14.890625 38.140625 10.796875 36.28125 
z
" id="DejaVuSans-53"/>
       </defs>
       <use xlink:href="#DejaVuSans-53"/>
       <use x="63.623047" xlink:href="#DejaVuSans-48"/>
       <use x="127.246094" xlink:href="#DejaVuSans-48"/>
      </g>
     </g>
    </g>
    <g id="text_7">
     <!-- Byte number accessed $\to$ -->
     <g transform="translate(173.16 335.862125)scale(0.1 -0.1)">
      <defs>
       <path d="M 19.671875 34.8125 
L 19.671875 8.109375 
L 35.5 8.109375 
Q 43.453125 8.109375 47.28125 11.40625 
Q 51.125 14.703125 51.125 21.484375 
Q 51.125 28.328125 47.28125 31.5625 
Q 43.453125 34.8125 35.5 34.8125 
z
M 19.671875 64.796875 
L 19.671875 42.828125 
L 34.28125 42.828125 
Q 41.5 42.828125 45.03125 45.53125 
Q 48.578125 48.25 48.578125 53.8125 
Q 48.578125 59.328125 45.03125 62.0625 
Q 41.5 64.796875 34.28125 64.796875 
z
M 9.8125 72.90625 
L 35.015625 72.90625 
Q 46.296875 72.90625 52.390625 68.21875 
Q 58.5 63.53125 58.5 54.890625 
Q 58.5 48.1875 55.375 44.234375 
Q 52.25 40.28125 46.1875 39.3125 
Q 53.46875 37.75 57.5 32.78125 
Q 61.53125 27.828125 61.53125 20.40625 
Q 61.53125 10.640625 54.890625 5.3125 
Q 48.25 0 35.984375 0 
L 9.8125 0 
z
" id="DejaVuSans-66"/>
       <path d="M 32.171875 -5.078125 
Q 28.375 -14.84375 24.75 -17.8125 
Q 21.140625 -20.796875 15.09375 -20.796875 
L 7.90625 -20.796875 
L 7.90625 -13.28125 
L 13.1875 -13.28125 
Q 16.890625 -13.28125 18.9375 -11.515625 
Q 21 -9.765625 23.484375 -3.21875 
L 25.09375 0.875 
L 2.984375 54.6875 
L 12.5 54.6875 
L 29.59375 11.921875 
L 46.6875 54.6875 
L 56.203125 54.6875 
z
" id="DejaVuSans-121"/>
       <path d="M 18.3125 70.21875 
L 18.3125 54.6875 
L 36.8125 54.6875 
L 36.8125 47.703125 
L 18.3125 47.703125 
L 18.3125 18.015625 
Q 18.3125 11.328125 20.140625 9.421875 
Q 21.96875 7.515625 27.59375 7.515625 
L 36.8125 7.515625 
L 36.8125 0 
L 27.59375 0 
Q 17.1875 0 13.234375 3.875 
Q 9.28125 7.765625 9.28125 18.015625 
L 9.28125 47.703125 
L 2.6875 47.703125 
L 2.6875 54.6875 
L 9.28125 54.6875 
L 9.28125 70.21875 
z
" id="DejaVuSans-116"/>
       <path d="M 56.203125 29.59375 
L 56.203125 25.203125 
L 14.890625 25.203125 
Q 15.484375 15.921875 20.484375 11.0625 
Q 25.484375 6.203125 34.421875 6.203125 
Q 39.59375 6.203125 44.453125 7.46875 
Q 49.3125 8.734375 54.109375 11.28125 
L 54.109375 2.78125 
Q 49.265625 0.734375 44.1875 -0.34375 
Q 39.109375 -1.421875 33.890625 -1.421875 
Q 20.796875 -1.421875 13.15625 6.1875 
Q 5.515625 13.8125 5.515625 26.8125 
Q 5.515625 40.234375 12.765625 48.109375 
Q 20.015625 56 32.328125 56 
Q 43.359375 56 49.78125 48.890625 
Q 56.203125 41.796875 56.203125 29.59375 
z
M 47.21875 32.234375 
Q 47.125 39.59375 43.09375 43.984375 
Q 39.0625 48.390625 32.421875 48.390625 
Q 24.90625 48.390625 20.390625 44.140625 
Q 15.875 39.890625 15.1875 32.171875 
z
" id="DejaVuSans-101"/>
       <path id="DejaVuSans-32"/>
       <path d="M 54.890625 33.015625 
L 54.890625 0 
L 45.90625 0 
L 45.90625 32.71875 
Q 45.90625 40.484375 42.875 44.328125 
Q 39.84375 48.1875 33.796875 48.1875 
Q 26.515625 48.1875 22.3125 43.546875 
Q 18.109375 38.921875 18.109375 30.90625 
L 18.109375 0 
L 9.078125 0 
L 9.078125 54.6875 
L 18.109375 54.6875 
L 18.109375 46.1875 
Q 21.34375 51.125 25.703125 53.5625 
Q 30.078125 56 35.796875 56 
Q 45.21875 56 50.046875 50.171875 
Q 54.890625 44.34375 54.890625 33.015625 
z
" id="DejaVuSans-110"/>
       <path d="M 8.5 21.578125 
L 8.5 54.6875 
L 17.484375 54.6875 
L 17.484375 21.921875 
Q 17.484375 14.15625 20.5 10.265625 
Q 23.53125 6.390625 29.59375 6.390625 
Q 36.859375 6.390625 41.078125 11.03125 
Q 45.3125 15.671875 45.3125 23.6875 
L 45.3125 54.6875 
L 54.296875 54.6875 
L 54.296875 0 
L 45.3125 0 
L 45.3125 8.40625 
Q 42.046875 3.421875 37.71875 1 
Q 33.40625 -1.421875 27.6875 -1.421875 
Q 18.265625 -1.421875 13.375 4.4375 
Q 8.5 10.296875 8.5 21.578125 
z
M 31.109375 56 
z
" id="DejaVuSans-117"/>
       <path d="M 52 44.1875 
Q 55.375 50.25 60.0625 53.125 
Q 64.75 56 71.09375 56 
Q 79.640625 56 84.28125 50.015625 
Q 88.921875 44.046875 88.921875 33.015625 
L 88.921875 0 
L 79.890625 0 
L 79.890625 32.71875 
Q 79.890625 40.578125 77.09375 44.375 
Q 74.3125 48.1875 68.609375 48.1875 
Q 61.625 48.1875 57.5625 43.546875 
Q 53.515625 38.921875 53.515625 30.90625 
L 53.515625 0 
L 44.484375 0 
L 44.484375 32.71875 
Q 44.484375 40.625 41.703125 44.40625 
Q 38.921875 48.1875 33.109375 48.1875 
Q 26.21875 48.1875 22.15625 43.53125 
Q 18.109375 38.875 18.109375 30.90625 
L 18.109375 0 
L 9.078125 0 
L 9.078125 54.6875 
L 18.109375 54.6875 
L 18.109375 46.1875 
Q 21.1875 51.21875 25.484375 53.609375 
Q 29.78125 56 35.6875 56 
Q 41.65625 56 45.828125 52.96875 
Q 50 49.953125 52 44.1875 
z
" id="DejaVuSans-109"/>
       <path d="M 48.6875 27.296875 
Q 48.6875 37.203125 44.609375 42.84375 
Q 40.53125 48.484375 33.40625 48.484375 
Q 26.265625 48.484375 22.1875 42.84375 
Q 18.109375 37.203125 18.109375 27.296875 
Q 18.109375 17.390625 22.1875 11.75 
Q 26.265625 6.109375 33.40625 6.109375 
Q 40.53125 6.109375 44.609375 11.75 
Q 48.6875 17.390625 48.6875 27.296875 
z
M 18.109375 46.390625 
Q 20.953125 51.265625 25.265625 53.625 
Q 29.59375 56 35.59375 56 
Q 45.5625 56 51.78125 48.09375 
Q 58.015625 40.1875 58.015625 27.296875 
Q 58.015625 14.40625 51.78125 6.484375 
Q 45.5625 -1.421875 35.59375 -1.421875 
Q 29.59375 -1.421875 25.265625 0.953125 
Q 20.953125 3.328125 18.109375 8.203125 
L 18.109375 0 
L 9.078125 0 
L 9.078125 75.984375 
L 18.109375 75.984375 
z
" id="DejaVuSans-98"/>
       <path d="M 41.109375 46.296875 
Q 39.59375 47.171875 37.8125 47.578125 
Q 36.03125 48 33.890625 48 
Q 26.265625 48 22.1875 43.046875 
Q 18.109375 38.09375 18.109375 28.8125 
L 18.109375 0 
L 9.078125 0 
L 9.078125 54.6875 
L 18.109375 54.6875 
L 18.109375 46.1875 
Q 20.953125 51.171875 25.484375 53.578125 
Q 30.03125 56 36.53125 56 
Q 37.453125 56 38.578125 55.875 
Q 39.703125 55.765625 41.0625 55.515625 
z
" id="DejaVuSans-114"/>
       <path d="M 34.28125 27.484375 
Q 23.390625 27.484375 19.1875 25 
Q 14.984375 22.515625 14.984375 16.5 
Q 14.984375 11.71875 18.140625 8.90625 
Q 21.296875 6.109375 26.703125 6.109375 
Q 34.1875 6.109375 38.703125 11.40625 
Q 43.21875 16.703125 43.21875 25.484375 
L 43.21875 27.484375 
z
M 52.203125 31.203125 
L 52.203125 0 
L 43.21875 0 
L 43.21875 8.296875 
Q 40.140625 3.328125 35.546875 0.953125 
Q 30.953125 -1.421875 24.3125 -1.421875 
Q 15.921875 -1.421875 10.953125 3.296875 
Q 6 8.015625 6 15.921875 
Q 6 25.140625 12.171875 29.828125 
Q 18.359375 34.515625 30.609375 34.515625 
L 43.21875 34.515625 
L 43.21875 35.40625 
Q 43.21875 41.609375 39.140625 45 
Q 35.0625 48.390625 27.6875 48.390625 
Q 23 48.390625 18.546875 47.265625 
Q 14.109375 46.140625 10.015625 43.890625 
L 10.015625 52.203125 
Q 14.9375 54.109375 19.578125 55.046875 
Q 24.21875 56 28.609375 56 
Q 40.484375 56 46.34375 49.84375 
Q 52.203125 43.703125 52.203125 31.203125 
z
" id="DejaVuSans-97"/>
       <path d="M 48.78125 52.59375 
L 48.78125 44.1875 
Q 44.96875 46.296875 41.140625 47.34375 
Q 37.3125 48.390625 33.40625 48.390625 
Q 24.65625 48.390625 19.8125 42.84375 
Q 14.984375 37.3125 14.984375 27.296875 
Q 14.984375 17.28125 19.8125 11.734375 
Q 24.65625 6.203125 33.40625 6.203125 
Q 37.3125 6.203125 41.140625 7.25 
Q 44.96875 8.296875 48.78125 10.40625 
L 48.78125 2.09375 
Q 45.015625 0.34375 40.984375 -0.53125 
Q 36.96875 -1.421875 32.421875 -1.421875 
Q 20.0625 -1.421875 12.78125 6.34375 
Q 5.515625 14.109375 5.515625 27.296875 
Q 5.515625 40.671875 12.859375 48.328125 
Q 20.21875 56 33.015625 56 
Q 37.15625 56 41.109375 55.140625 
Q 45.0625 54.296875 48.78125 52.59375 
z
" id="DejaVuSans-99"/>
       <path d="M 44.28125 53.078125 
L 44.28125 44.578125 
Q 40.484375 46.53125 36.375 47.5 
Q 32.28125 48.484375 27.875 48.484375 
Q 21.1875 48.484375 17.84375 46.4375 
Q 14.5 44.390625 14.5 40.28125 
Q 14.5 37.15625 16.890625 35.375 
Q 19.28125 33.59375 26.515625 31.984375 
L 29.59375 31.296875 
Q 39.15625 29.25 43.1875 25.515625 
Q 47.21875 21.78125 47.21875 15.09375 
Q 47.21875 7.46875 41.1875 3.015625 
Q 35.15625 -1.421875 24.609375 -1.421875 
Q 20.21875 -1.421875 15.453125 -0.5625 
Q 10.6875 0.296875 5.421875 2 
L 5.421875 11.28125 
Q 10.40625 8.6875 15.234375 7.390625 
Q 20.0625 6.109375 24.8125 6.109375 
Q 31.15625 6.109375 34.5625 8.28125 
Q 37.984375 10.453125 37.984375 14.40625 
Q 37.984375 18.0625 35.515625 20.015625 
Q 33.0625 21.96875 24.703125 23.78125 
L 21.578125 24.515625 
Q 13.234375 26.265625 9.515625 29.90625 
Q 5.8125 33.546875 5.8125 39.890625 
Q 5.8125 47.609375 11.28125 51.796875 
Q 16.75 56 26.8125 56 
Q 31.78125 56 36.171875 55.265625 
Q 40.578125 54.546875 44.28125 53.078125 
z
" id="DejaVuSans-115"/>
       <path d="M 45.40625 46.390625 
L 45.40625 75.984375 
L 54.390625 75.984375 
L 54.390625 0 
L 45.40625 0 
L 45.40625 8.203125 
Q 42.578125 3.328125 38.25 0.953125 
Q 33.9375 -1.421875 27.875 -1.421875 
Q 17.96875 -1.421875 11.734375 6.484375 
Q 5.515625 14.40625 5.515625 27.296875 
Q 5.515625 40.1875 11.734375 48.09375 
Q 17.96875 56 27.875 56 
Q 33.9375 56 38.25 53.625 
Q 42.578125 51.265625 45.40625 46.390625 
z
M 14.796875 27.296875 
Q 14.796875 17.390625 18.875 11.75 
Q 22.953125 6.109375 30.078125 6.109375 
Q 37.203125 6.109375 41.296875 11.75 
Q 45.40625 17.390625 45.40625 27.296875 
Q 45.40625 37.203125 41.296875 42.84375 
Q 37.203125 48.484375 30.078125 48.484375 
Q 22.953125 48.484375 18.875 42.84375 
Q 14.796875 37.203125 14.796875 27.296875 
z
" id="DejaVuSans-100"/>
       <path d="M 78.90625 33.546875 
L 78.90625 29.15625 
L 59.71875 9.96875 
L 53.859375 15.828125 
L 65.234375 27.203125 
L 5.71875 27.203125 
L 5.71875 35.5 
L 65.234375 35.5 
L 53.859375 46.875 
L 59.71875 52.734375 
z
" id="DejaVuSans-8594"/>
      </defs>
      <use transform="translate(0 0.015625)" xlink:href="#DejaVuSans-66"/>
      <use transform="translate(68.603516 0.015625)" xlink:href="#DejaVuSans-121"/>
      <use transform="translate(127.783203 0.015625)" xlink:href="#DejaVuSans-116"/>
      <use transform="translate(166.992188 0.015625)" xlink:href="#DejaVuSans-101"/>
      <use transform="translate(228.515625 0.015625)" xlink:href="#DejaVuSans-32"/>
      <use transform="translate(260.302734 0.015625)" xlink:href="#DejaVuSans-110"/>
      <use transform="translate(323.681641 0.015625)" xlink:href="#DejaVuSans-117"/>
      <use transform="translate(387.060547 0.015625)" xlink:href="#DejaVuSans-109"/>
      <use transform="translate(484.472656 0.015625)" xlink:href="#DejaVuSans-98"/>
      <use transform="translate(547.949219 0.015625)" xlink:href="#DejaVuSans-101"/>
      <use transform="translate(609.472656 0.015625)" xlink:href="#DejaVuSans-114"/>
      <use transform="translate(650.585938 0.015625)" xlink:href="#DejaVuSans-32"/>
      <use transform="translate(682.373047 0.015625)" xlink:href="#DejaVuSans-97"/>
      <use transform="translate(743.652344 0.015625)" xlink:href="#DejaVuSans-99"/>
      <use transform="translate(798.632812 0.015625)" xlink:href="#DejaVuSans-99"/>
      <use transform="translate(853.613281 0.015625)" xlink:href="#DejaVuSans-101"/>
      <use transform="translate(915.136719 0.015625)" xlink:href="#DejaVuSans-115"/>
      <use transform="translate(967.236328 0.015625)" xlink:href="#DejaVuSans-115"/>
      <use transform="translate(1019.335938 0.015625)" xlink:href="#DejaVuSans-101"/>
      <use transform="translate(1080.859375 0.015625)" xlink:href="#DejaVuSans-100"/>
      <use transform="translate(1144.335938 0.015625)" xlink:href="#DejaVuSans-32"/>
      <use transform="translate(1176.123047 0.015625)" xlink:href="#DejaVuSans-8594"/>
     </g>
    </g>
   </g>
   <g id="matplotlib.axis_2">
    <g id="text_8">
     <!-- Latency $\to$ -->
     <g transform="translate(51.5 200.078)rotate(-90)scale(0.1 -0.1)">
      <defs>
       <path d="M 9.8125 72.90625 
L 19.671875 72.90625 
L 19.671875 8.296875 
L 55.171875 8.296875 
L 55.171875 0 
L 9.8125 0 
z
" id="DejaVuSans-76"/>
      </defs>
      <use transform="translate(0 0.09375)" xlink:href="#DejaVuSans-76"/>
      <use transform="translate(55.712891 0.09375)" xlink:href="#DejaVuSans-97"/>
      <use transform="translate(116.992188 0.09375)" xlink:href="#DejaVuSans-116"/>
      <use transform="translate(156.201172 0.09375)" xlink:href="#DejaVuSans-101"/>
      <use transform="translate(217.724609 0.09375)" xlink:href="#DejaVuSans-110"/>
      <use transform="translate(281.103516 0.09375)" xlink:href="#DejaVuSans-99"/>
      <use transform="translate(336.083984 0.09375)" xlink:href="#DejaVuSans-121"/>
      <use transform="translate(395.263672 0.09375)" xlink:href="#DejaVuSans-32"/>
      <use transform="translate(427.050781 0.09375)" xlink:href="#DejaVuSans-8594"/>
     </g>
    </g>
   </g>
   <g id="line2d_13">
    <path clip-path="url(#p29f779e632)" d="M 73.832727 90.786462 
L 74.466818 286.183385 
L 77.637273 286.183385 
L 78.271364 295.488 
L 78.905455 286.183385 
L 79.539545 286.183385 
L 80.173636 295.488 
L 82.075909 295.488 
L 82.71 286.183385 
L 85.246364 286.183385 
L 85.880455 295.488 
L 86.514545 286.183385 
L 87.148636 295.488 
L 88.416818 295.488 
L 89.050909 286.183385 
L 89.685 286.183385 
L 90.319091 295.488 
L 90.953182 286.183385 
L 91.587273 295.488 
L 93.489545 295.488 
L 94.123636 286.183385 
L 96.66 286.183385 
L 97.294091 295.488 
L 97.928182 295.488 
L 98.562273 286.183385 
L 99.196364 295.488 
L 99.830455 295.488 
L 100.464545 286.183385 
L 101.098636 286.183385 
L 101.732727 295.488 
L 102.366818 295.488 
L 103.000909 286.183385 
L 103.635 286.183385 
L 104.269091 295.488 
L 104.903182 286.183385 
L 105.537273 295.488 
L 107.439545 295.488 
L 108.073636 286.183385 
L 109.341818 286.183385 
L 109.975909 295.488 
L 111.244091 295.488 
L 111.878182 286.183385 
L 113.146364 286.183385 
L 113.780455 295.488 
L 114.414545 295.488 
L 115.048636 286.183385 
L 115.682727 295.488 
L 116.316818 286.183385 
L 116.950909 286.183385 
L 117.585 295.488 
L 118.219091 286.183385 
L 118.853182 295.488 
L 120.121364 295.488 
L 120.755455 286.183385 
L 122.023636 286.183385 
L 122.657727 295.488 
L 123.291818 295.488 
L 123.925909 286.183385 
L 124.56 295.488 
L 125.194091 286.183385 
L 125.828182 286.183385 
L 126.462273 295.488 
L 127.096364 295.488 
L 127.730455 286.183385 
L 128.998636 286.183385 
L 129.632727 295.488 
L 130.266818 286.183385 
L 130.900909 295.488 
L 131.535 286.183385 
L 132.803182 286.183385 
L 133.437273 295.488 
L 134.705455 295.488 
L 135.339545 286.183385 
L 135.973636 295.488 
L 137.875909 295.488 
L 138.51 286.183385 
L 139.144091 286.183385 
L 139.778182 295.488 
L 140.412273 286.183385 
L 141.046364 286.183385 
L 141.680455 295.488 
L 142.314545 295.488 
L 142.948636 286.183385 
L 143.582727 295.488 
L 144.216818 286.183385 
L 144.850909 221.051077 
L 145.485 286.183385 
L 146.119091 286.183385 
L 146.753182 295.488 
L 147.387273 295.488 
L 148.021364 286.183385 
L 148.655455 295.488 
L 150.557727 295.488 
L 151.191818 286.183385 
L 153.728182 286.183385 
L 154.362273 295.488 
L 154.996364 286.183385 
L 155.630455 295.488 
L 156.898636 295.488 
L 157.532727 286.183385 
L 158.166818 286.183385 
L 158.800909 295.488 
L 159.435 286.183385 
L 160.069091 295.488 
L 160.703182 295.488 
L 161.337273 286.183385 
L 161.971364 286.183385 
L 162.605455 295.488 
L 163.239545 295.488 
L 163.873636 286.183385 
L 164.507727 286.183385 
L 165.141818 295.488 
L 165.775909 286.183385 
L 166.41 295.488 
L 167.044091 295.488 
L 167.678182 286.183385 
L 168.312273 286.183385 
L 168.946364 295.488 
L 169.580455 295.488 
L 170.214545 286.183385 
L 170.848636 286.183385 
L 171.482727 295.488 
L 172.116818 286.183385 
L 172.750909 295.488 
L 174.653182 295.488 
L 175.287273 286.183385 
L 175.921364 286.183385 
L 176.555455 295.488 
L 177.189545 286.183385 
L 177.823636 286.183385 
L 178.457727 295.488 
L 179.091818 295.488 
L 179.725909 286.183385 
L 180.36 286.183385 
L 180.994091 295.488 
L 181.628182 295.488 
L 182.262273 286.183385 
L 182.896364 295.488 
L 183.530455 286.183385 
L 184.798636 286.183385 
L 185.432727 211.746462 
L 186.066818 202.441846 
L 186.700909 286.183385 
L 187.335 286.183385 
L 187.969091 295.488 
L 188.603182 295.488 
L 189.237273 286.183385 
L 189.871364 295.488 
L 191.139545 295.488 
L 191.773636 286.183385 
L 192.407727 286.183385 
L 193.041818 295.488 
L 193.675909 295.488 
L 194.31 286.183385 
L 194.944091 286.183385 
L 195.578182 295.488 
L 196.212273 295.488 
L 196.846364 286.183385 
L 197.480455 286.183385 
L 198.114545 295.488 
L 199.382727 295.488 
L 200.016818 286.183385 
L 200.650909 295.488 
L 201.285 286.183385 
L 201.919091 286.183385 
L 202.553182 295.488 
L 203.187273 295.488 
L 203.821364 286.183385 
L 204.455455 295.488 
L 205.089545 286.183385 
L 205.723636 286.183385 
L 206.357727 295.488 
L 206.991818 295.488 
L 207.625909 286.183385 
L 208.26 286.183385 
L 208.894091 295.488 
L 210.162273 295.488 
L 210.796364 286.183385 
L 212.064545 286.183385 
L 212.698636 295.488 
L 213.332727 295.488 
L 213.966818 286.183385 
L 214.600909 295.488 
L 215.235 286.183385 
L 217.137273 286.183385 
L 217.771364 295.488 
L 218.405455 286.183385 
L 219.039545 295.488 
L 220.307727 295.488 
L 220.941818 286.183385 
L 221.575909 286.183385 
L 222.21 295.488 
L 222.844091 286.183385 
L 223.478182 295.488 
L 224.112273 295.488 
L 224.746364 286.183385 
L 225.380455 286.183385 
L 226.014545 221.051077 
L 226.648636 286.183385 
L 227.282727 295.488 
L 227.916818 286.183385 
L 228.550909 295.488 
L 229.185 295.488 
L 229.819091 286.183385 
L 230.453182 295.488 
L 231.721364 295.488 
L 232.355455 286.183385 
L 232.989545 286.183385 
L 233.623636 295.488 
L 234.257727 295.488 
L 234.891818 286.183385 
L 235.525909 286.183385 
L 236.16 295.488 
L 236.794091 295.488 
L 237.428182 286.183385 
L 238.062273 286.183385 
L 238.696364 295.488 
L 239.330455 295.488 
L 239.964545 286.183385 
L 240.598636 286.183385 
L 241.232727 295.488 
L 241.866818 295.488 
L 242.500909 286.183385 
L 243.135 286.183385 
L 243.769091 295.488 
L 244.403182 295.488 
L 245.037273 286.183385 
L 245.671364 286.183385 
L 246.305455 295.488 
L 246.939545 295.488 
L 247.573636 286.183385 
L 248.207727 286.183385 
L 248.841818 295.488 
L 249.475909 295.488 
L 250.11 286.183385 
L 250.744091 286.183385 
L 251.378182 295.488 
L 252.012273 295.488 
L 252.646364 286.183385 
L 253.280455 286.183385 
L 253.914545 295.488 
L 255.816818 295.488 
L 256.450909 286.183385 
L 257.085 286.183385 
L 257.719091 295.488 
L 258.353182 286.183385 
L 260.255455 286.183385 
L 260.889545 295.488 
L 261.523636 295.488 
L 262.157727 286.183385 
L 262.791818 295.488 
L 263.425909 286.183385 
L 264.694091 286.183385 
L 265.328182 295.488 
L 265.962273 286.183385 
L 266.596364 221.051077 
L 267.230455 295.488 
L 267.864545 295.488 
L 268.498636 286.183385 
L 269.132727 295.488 
L 270.400909 295.488 
L 271.035 286.183385 
L 271.669091 295.488 
L 272.303182 286.183385 
L 272.937273 286.183385 
L 273.571364 295.488 
L 274.205455 286.183385 
L 274.839545 295.488 
L 276.741818 295.488 
L 277.375909 286.183385 
L 278.644091 286.183385 
L 279.278182 295.488 
L 279.912273 295.488 
L 280.546364 286.183385 
L 281.180455 295.488 
L 281.814545 286.183385 
L 283.082727 286.183385 
L 283.716818 295.488 
L 284.350909 295.488 
L 284.985 286.183385 
L 285.619091 286.183385 
L 286.253182 295.488 
L 286.887273 286.183385 
L 288.155455 286.183385 
L 288.789545 295.488 
L 289.423636 286.183385 
L 290.057727 295.488 
L 290.691818 295.488 
L 291.325909 286.183385 
L 291.96 295.488 
L 293.228182 295.488 
L 293.862273 286.183385 
L 294.496364 286.183385 
L 295.130455 295.488 
L 295.764545 286.183385 
L 296.398636 295.488 
L 297.666818 295.488 
L 298.300909 286.183385 
L 298.935 295.488 
L 299.569091 286.183385 
L 300.203182 286.183385 
L 300.837273 295.488 
L 301.471364 295.488 
L 302.105455 286.183385 
L 302.739545 295.488 
L 303.373636 286.183385 
L 304.007727 286.183385 
L 304.641818 295.488 
L 305.275909 295.488 
L 305.91 286.183385 
L 306.544091 295.488 
L 307.178182 53.568 
L 307.812273 286.183385 
L 309.080455 286.183385 
L 309.714545 295.488 
L 310.982727 295.488 
L 311.616818 286.183385 
L 312.250909 286.183385 
L 312.885 295.488 
L 313.519091 286.183385 
L 314.153182 295.488 
L 316.055455 295.488 
L 316.689545 286.183385 
L 317.323636 286.183385 
L 317.957727 295.488 
L 318.591818 286.183385 
L 319.225909 286.183385 
L 319.86 295.488 
L 320.494091 295.488 
L 321.128182 286.183385 
L 321.762273 286.183385 
L 322.396364 295.488 
L 323.030455 295.488 
L 323.664545 286.183385 
L 324.298636 295.488 
L 324.932727 286.183385 
L 326.835 286.183385 
L 327.469091 295.488 
L 328.103182 286.183385 
L 328.737273 295.488 
L 329.371364 295.488 
L 330.005455 286.183385 
L 330.639545 295.488 
L 331.273636 295.488 
L 331.907727 286.183385 
L 332.541818 286.183385 
L 333.175909 295.488 
L 333.81 295.488 
L 334.444091 286.183385 
L 335.078182 286.183385 
L 335.712273 295.488 
L 336.346364 286.183385 
L 336.980455 295.488 
L 338.882727 295.488 
L 339.516818 286.183385 
L 340.150909 286.183385 
L 340.785 295.488 
L 341.419091 286.183385 
L 342.053182 286.183385 
L 342.687273 295.488 
L 343.321364 295.488 
L 343.955455 286.183385 
L 344.589545 286.183385 
L 345.223636 295.488 
L 345.857727 295.488 
L 346.491818 286.183385 
L 347.125909 286.183385 
L 347.76 221.051077 
L 348.394091 295.488 
L 349.028182 286.183385 
L 349.662273 295.488 
L 350.296364 286.183385 
L 351.564545 286.183385 
L 352.198636 295.488 
L 353.466818 295.488 
L 354.100909 286.183385 
L 354.735 295.488 
L 356.637273 295.488 
L 357.271364 286.183385 
L 357.905455 286.183385 
L 358.539545 295.488 
L 359.173636 286.183385 
L 361.075909 286.183385 
L 361.71 295.488 
L 362.344091 286.183385 
L 364.246364 286.183385 
L 364.880455 295.488 
L 365.514545 295.488 
L 366.148636 286.183385 
L 366.782727 295.488 
L 368.050909 295.488 
L 368.685 286.183385 
L 369.319091 286.183385 
L 369.953182 295.488 
L 370.587273 295.488 
L 371.221364 286.183385 
L 371.855455 286.183385 
L 372.489545 295.488 
L 373.123636 295.488 
L 373.757727 286.183385 
L 374.391818 286.183385 
L 375.025909 295.488 
L 375.66 295.488 
L 376.294091 286.183385 
L 376.928182 286.183385 
L 377.562273 295.488 
L 378.196364 295.488 
L 378.830455 286.183385 
L 379.464545 286.183385 
L 380.098636 295.488 
L 380.732727 295.488 
L 381.366818 286.183385 
L 382.000909 286.183385 
L 382.635 295.488 
L 383.269091 295.488 
L 383.903182 286.183385 
L 384.537273 286.183385 
L 385.171364 295.488 
L 385.805455 295.488 
L 386.439545 286.183385 
L 387.073636 286.183385 
L 387.707727 295.488 
L 388.341818 211.746462 
L 388.975909 286.183385 
L 389.61 286.183385 
L 390.244091 295.488 
L 391.512273 295.488 
L 392.146364 286.183385 
L 393.414545 286.183385 
L 394.048636 295.488 
L 394.682727 295.488 
L 395.316818 286.183385 
L 395.950909 286.183385 
L 396.585 295.488 
L 397.219091 286.183385 
L 398.487273 286.183385 
L 398.487273 286.183385 
" style="fill:none;stroke:#1f77b4;stroke-linecap:square;stroke-width:1.5;"/>
   </g>
   <g id="patch_3">
    <path d="M 57.6 307.584 
L 57.6 41.472 
" style="fill:none;stroke:#000000;stroke-linecap:square;stroke-linejoin:miter;stroke-width:0.8;"/>
   </g>
   <g id="patch_4">
    <path d="M 414.72 307.584 
L 414.72 41.472 
" style="fill:none;stroke:#000000;stroke-linecap:square;stroke-linejoin:miter;stroke-width:0.8;"/>
   </g>
   <g id="patch_5">
    <path d="M 57.6 307.584 
L 414.72 307.584 
" style="fill:none;stroke:#000000;stroke-linecap:square;stroke-linejoin:miter;stroke-width:0.8;"/>
   </g>
   <g id="patch_6">
    <path d="M 57.6 41.472 
L 414.72 41.472 
" style="fill:none;stroke:#000000;stroke-linecap:square;stroke-linejoin:miter;stroke-width:0.8;"/>
   </g>
   <g id="text_9">
    <!-- Block size calculation -->
    <g transform="translate(171.90375 35.472)scale(0.12 -0.12)">
     <defs>
      <path d="M 9.421875 75.984375 
L 18.40625 75.984375 
L 18.40625 0 
L 9.421875 0 
z
" id="DejaVuSans-108"/>
      <path d="M 30.609375 48.390625 
Q 23.390625 48.390625 19.1875 42.75 
Q 14.984375 37.109375 14.984375 27.296875 
Q 14.984375 17.484375 19.15625 11.84375 
Q 23.34375 6.203125 30.609375 6.203125 
Q 37.796875 6.203125 41.984375 11.859375 
Q 46.1875 17.53125 46.1875 27.296875 
Q 46.1875 37.015625 41.984375 42.703125 
Q 37.796875 48.390625 30.609375 48.390625 
z
M 30.609375 56 
Q 42.328125 56 49.015625 48.375 
Q 55.71875 40.765625 55.71875 27.296875 
Q 55.71875 13.875 49.015625 6.21875 
Q 42.328125 -1.421875 30.609375 -1.421875 
Q 18.84375 -1.421875 12.171875 6.21875 
Q 5.515625 13.875 5.515625 27.296875 
Q 5.515625 40.765625 12.171875 48.375 
Q 18.84375 56 30.609375 56 
z
" id="DejaVuSans-111"/>
      <path d="M 9.078125 75.984375 
L 18.109375 75.984375 
L 18.109375 31.109375 
L 44.921875 54.6875 
L 56.390625 54.6875 
L 27.390625 29.109375 
L 57.625 0 
L 45.90625 0 
L 18.109375 26.703125 
L 18.109375 0 
L 9.078125 0 
z
" id="DejaVuSans-107"/>
      <path d="M 9.421875 54.6875 
L 18.40625 54.6875 
L 18.40625 0 
L 9.421875 0 
z
M 9.421875 75.984375 
L 18.40625 75.984375 
L 18.40625 64.59375 
L 9.421875 64.59375 
z
" id="DejaVuSans-105"/>
      <path d="M 5.515625 54.6875 
L 48.1875 54.6875 
L 48.1875 46.484375 
L 14.40625 7.171875 
L 48.1875 7.171875 
L 48.1875 0 
L 4.296875 0 
L 4.296875 8.203125 
L 38.09375 47.515625 
L 5.515625 47.515625 
z
" id="DejaVuSans-122"/>
     </defs>
     <use xlink:href="#DejaVuSans-66"/>
     <use x="68.603516" xlink:href="#DejaVuSans-108"/>
     <use x="96.386719" xlink:href="#DejaVuSans-111"/>
     <use x="157.568359" xlink:href="#DejaVuSans-99"/>
     <use x="212.548828" xlink:href="#DejaVuSans-107"/>
     <use x="270.458984" xlink:href="#DejaVuSans-32"/>
     <use x="302.246094" xlink:href="#DejaVuSans-115"/>
     <use x="354.345703" xlink:href="#DejaVuSans-105"/>
     <use x="382.128906" xlink:href="#DejaVuSans-122"/>
     <use x="434.619141" xlink:href="#DejaVuSans-101"/>
     <use x="496.142578" xlink:href="#DejaVuSans-32"/>
     <use x="527.929688" xlink:href="#DejaVuSans-99"/>
     <use x="582.910156" xlink:href="#DejaVuSans-97"/>
     <use x="644.189453" xlink:href="#DejaVuSans-108"/>
     <use x="671.972656" xlink:href="#DejaVuSans-99"/>
     <use x="726.953125" xlink:href="#DejaVuSans-117"/>
     <use x="790.332031" xlink:href="#DejaVuSans-108"/>
     <use x="818.115234" xlink:href="#DejaVuSans-97"/>
     <use x="879.394531" xlink:href="#DejaVuSans-116"/>
     <use x="918.603516" xlink:href="#DejaVuSans-105"/>
     <use x="946.386719" xlink:href="#DejaVuSans-111"/>
     <use x="1007.568359" xlink:href="#DejaVuSans-110"/>
    </g>
   </g>
  </g>
 </g>
 <defs>
  <clipPath id="p29f779e632">
   <rect height="266.112" width="357.12" x="57.6" y="41.472"/>
  </clipPath>
 </defs>
</svg>
