<?xml version="1.0" encoding="utf-8" standalone="no"?>
<!DOCTYPE svg PUBLIC "-//W3C//DTD SVG 1.1//EN"
  "http://www.w3.org/Graphics/SVG/1.1/DTD/svg11.dtd">
<!-- Created with matplotlib (https://matplotlib.org/) -->
<svg height="345.6pt" version="1.1" viewBox="0 0 460.8 345.6" width="460.8pt" xmlns="http://www.w3.org/2000/svg" xmlns:xlink="http://www.w3.org/1999/xlink">
 <metadata>
  <rdf:RDF xmlns:cc="http://creativecommons.org/ns#" xmlns:dc="http://purl.org/dc/elements/1.1/" xmlns:rdf="http://www.w3.org/1999/02/22-rdf-syntax-ns#">
   <cc:Work>
    <dc:type rdf:resource="http://purl.org/dc/dcmitype/StillImage"/>
    <dc:date>2021-08-20T21:35:57.435603</dc:date>
    <dc:format>image/svg+xml</dc:format>
    <dc:creator>
     <cc:Agent>
      <dc:title>Matplotlib v3.3.4, https://matplotlib.org/</dc:title>
     </cc:Agent>
    </dc:creator>
   </cc:Work>
  </rdf:RDF>
 </metadata>
 <defs>
  <style type="text/css">*{stroke-linecap:butt;stroke-linejoin:round;}</style>
 </defs>
 <g id="figure_1">
  <g id="patch_1">
   <path d="M 0 345.6 
L 460.8 345.6 
L 460.8 0 
L 0 0 
z
" style="fill:#ffffff;"/>
  </g>
  <g id="axes_1">
   <g id="patch_2">
    <path d="M 57.6 307.584 
L 414.72 307.584 
L 414.72 41.472 
L 57.6 41.472 
z
" style="fill:#ffffff;"/>
   </g>
   <g id="matplotlib.axis_1">
    <g id="xtick_1">
     <g id="line2d_1">
      <path clip-path="url(#p821524ecff)" d="M 73.832689 307.584 
L 73.832689 41.472 
" style="fill:none;stroke:#b0b0b0;stroke-linecap:square;stroke-width:0.8;"/>
     </g>
     <g id="line2d_2">
      <defs>
       <path d="M 0 0 
L 0 3.5 
" id="m293358b0e7" style="stroke:#000000;stroke-width:0.8;"/>
      </defs>
      <g>
       <use style="stroke:#000000;stroke-width:0.8;" x="73.832689" xlink:href="#m293358b0e7" y="307.584"/>
      </g>
     </g>
     <g id="text_1">
      <!-- 0 -->
      <g transform="translate(70.651439 322.182437)scale(0.1 -0.1)">
       <defs>
        <path d="M 31.78125 66.40625 
Q 24.171875 66.40625 20.328125 58.90625 
Q 16.5 51.421875 16.5 36.375 
Q 16.5 21.390625 20.328125 13.890625 
Q 24.171875 6.390625 31.78125 6.390625 
Q 39.453125 6.390625 43.28125 13.890625 
Q 47.125 21.390625 47.125 36.375 
Q 47.125 51.421875 43.28125 58.90625 
Q 39.453125 66.40625 31.78125 66.40625 
z
M 31.78125 74.21875 
Q 44.046875 74.21875 50.515625 64.515625 
Q 56.984375 54.828125 56.984375 36.375 
Q 56.984375 17.96875 50.515625 8.265625 
Q 44.046875 -1.421875 31.78125 -1.421875 
Q 19.53125 -1.421875 13.0625 8.265625 
Q 6.59375 17.96875 6.59375 36.375 
Q 6.59375 54.828125 13.0625 64.515625 
Q 19.53125 74.21875 31.78125 74.21875 
z
" id="DejaVuSans-48"/>
       </defs>
       <use xlink:href="#DejaVuSans-48"/>
      </g>
     </g>
    </g>
    <g id="xtick_2">
     <g id="line2d_3">
      <path clip-path="url(#p821524ecff)" d="M 151.236373 307.584 
L 151.236373 41.472 
" style="fill:none;stroke:#b0b0b0;stroke-linecap:square;stroke-width:0.8;"/>
     </g>
     <g id="line2d_4">
      <g>
       <use style="stroke:#000000;stroke-width:0.8;" x="151.236373" xlink:href="#m293358b0e7" y="307.584"/>
      </g>
     </g>
     <g id="text_2">
      <!-- 2 -->
      <g transform="translate(148.055123 322.182437)scale(0.1 -0.1)">
       <defs>
        <path d="M 19.1875 8.296875 
L 53.609375 8.296875 
L 53.609375 0 
L 7.328125 0 
L 7.328125 8.296875 
Q 12.9375 14.109375 22.625 23.890625 
Q 32.328125 33.6875 34.8125 36.53125 
Q 39.546875 41.84375 41.421875 45.53125 
Q 43.3125 49.21875 43.3125 52.78125 
Q 43.3125 58.59375 39.234375 62.25 
Q 35.15625 65.921875 28.609375 65.921875 
Q 23.96875 65.921875 18.8125 64.3125 
Q 13.671875 62.703125 7.8125 59.421875 
L 7.8125 69.390625 
Q 13.765625 71.78125 18.9375 73 
Q 24.125 74.21875 28.421875 74.21875 
Q 39.75 74.21875 46.484375 68.546875 
Q 53.21875 62.890625 53.21875 53.421875 
Q 53.21875 48.921875 51.53125 44.890625 
Q 49.859375 40.875 45.40625 35.40625 
Q 44.1875 33.984375 37.640625 27.21875 
Q 31.109375 20.453125 19.1875 8.296875 
z
" id="DejaVuSans-50"/>
       </defs>
       <use xlink:href="#DejaVuSans-50"/>
      </g>
     </g>
    </g>
    <g id="xtick_3">
     <g id="line2d_5">
      <path clip-path="url(#p821524ecff)" d="M 228.640058 307.584 
L 228.640058 41.472 
" style="fill:none;stroke:#b0b0b0;stroke-linecap:square;stroke-width:0.8;"/>
     </g>
     <g id="line2d_6">
      <g>
       <use style="stroke:#000000;stroke-width:0.8;" x="228.640058" xlink:href="#m293358b0e7" y="307.584"/>
      </g>
     </g>
     <g id="text_3">
      <!-- 4 -->
      <g transform="translate(225.458808 322.182437)scale(0.1 -0.1)">
       <defs>
        <path d="M 37.796875 64.3125 
L 12.890625 25.390625 
L 37.796875 25.390625 
z
M 35.203125 72.90625 
L 47.609375 72.90625 
L 47.609375 25.390625 
L 58.015625 25.390625 
L 58.015625 17.1875 
L 47.609375 17.1875 
L 47.609375 0 
L 37.796875 0 
L 37.796875 17.1875 
L 4.890625 17.1875 
L 4.890625 26.703125 
z
" id="DejaVuSans-52"/>
       </defs>
       <use xlink:href="#DejaVuSans-52"/>
      </g>
     </g>
    </g>
    <g id="xtick_4">
     <g id="line2d_7">
      <path clip-path="url(#p821524ecff)" d="M 306.043743 307.584 
L 306.043743 41.472 
" style="fill:none;stroke:#b0b0b0;stroke-linecap:square;stroke-width:0.8;"/>
     </g>
     <g id="line2d_8">
      <g>
       <use style="stroke:#000000;stroke-width:0.8;" x="306.043743" xlink:href="#m293358b0e7" y="307.584"/>
      </g>
     </g>
     <g id="text_4">
      <!-- 6 -->
      <g transform="translate(302.862493 322.182437)scale(0.1 -0.1)">
       <defs>
        <path d="M 33.015625 40.375 
Q 26.375 40.375 22.484375 35.828125 
Q 18.609375 31.296875 18.609375 23.390625 
Q 18.609375 15.53125 22.484375 10.953125 
Q 26.375 6.390625 33.015625 6.390625 
Q 39.65625 6.390625 43.53125 10.953125 
Q 47.40625 15.53125 47.40625 23.390625 
Q 47.40625 31.296875 43.53125 35.828125 
Q 39.65625 40.375 33.015625 40.375 
z
M 52.59375 71.296875 
L 52.59375 62.3125 
Q 48.875 64.0625 45.09375 64.984375 
Q 41.3125 65.921875 37.59375 65.921875 
Q 27.828125 65.921875 22.671875 59.328125 
Q 17.53125 52.734375 16.796875 39.40625 
Q 19.671875 43.65625 24.015625 45.921875 
Q 28.375 48.1875 33.59375 48.1875 
Q 44.578125 48.1875 50.953125 41.515625 
Q 57.328125 34.859375 57.328125 23.390625 
Q 57.328125 12.15625 50.6875 5.359375 
Q 44.046875 -1.421875 33.015625 -1.421875 
Q 20.359375 -1.421875 13.671875 8.265625 
Q 6.984375 17.96875 6.984375 36.375 
Q 6.984375 53.65625 15.1875 63.9375 
Q 23.390625 74.21875 37.203125 74.21875 
Q 40.921875 74.21875 44.703125 73.484375 
Q 48.484375 72.75 52.59375 71.296875 
z
" id="DejaVuSans-54"/>
       </defs>
       <use xlink:href="#DejaVuSans-54"/>
      </g>
     </g>
    </g>
    <g id="xtick_5">
     <g id="line2d_9">
      <path clip-path="url(#p821524ecff)" d="M 383.447427 307.584 
L 383.447427 41.472 
" style="fill:none;stroke:#b0b0b0;stroke-linecap:square;stroke-width:0.8;"/>
     </g>
     <g id="line2d_10">
      <g>
       <use style="stroke:#000000;stroke-width:0.8;" x="383.447427" xlink:href="#m293358b0e7" y="307.584"/>
      </g>
     </g>
     <g id="text_5">
      <!-- 8 -->
      <g transform="translate(380.266177 322.182437)scale(0.1 -0.1)">
       <defs>
        <path d="M 31.78125 34.625 
Q 24.75 34.625 20.71875 30.859375 
Q 16.703125 27.09375 16.703125 20.515625 
Q 16.703125 13.921875 20.71875 10.15625 
Q 24.75 6.390625 31.78125 6.390625 
Q 38.8125 6.390625 42.859375 10.171875 
Q 46.921875 13.96875 46.921875 20.515625 
Q 46.921875 27.09375 42.890625 30.859375 
Q 38.875 34.625 31.78125 34.625 
z
M 21.921875 38.8125 
Q 15.578125 40.375 12.03125 44.71875 
Q 8.5 49.078125 8.5 55.328125 
Q 8.5 64.0625 14.71875 69.140625 
Q 20.953125 74.21875 31.78125 74.21875 
Q 42.671875 74.21875 48.875 69.140625 
Q 55.078125 64.0625 55.078125 55.328125 
Q 55.078125 49.078125 51.53125 44.71875 
Q 48 40.375 41.703125 38.8125 
Q 48.828125 37.15625 52.796875 32.3125 
Q 56.78125 27.484375 56.78125 20.515625 
Q 56.78125 9.90625 50.3125 4.234375 
Q 43.84375 -1.421875 31.78125 -1.421875 
Q 19.734375 -1.421875 13.25 4.234375 
Q 6.78125 9.90625 6.78125 20.515625 
Q 6.78125 27.484375 10.78125 32.3125 
Q 14.796875 37.15625 21.921875 38.8125 
z
M 18.3125 54.390625 
Q 18.3125 48.734375 21.84375 45.5625 
Q 25.390625 42.390625 31.78125 42.390625 
Q 38.140625 42.390625 41.71875 45.5625 
Q 45.3125 48.734375 45.3125 54.390625 
Q 45.3125 60.0625 41.71875 63.234375 
Q 38.140625 66.40625 31.78125 66.40625 
Q 25.390625 66.40625 21.84375 63.234375 
Q 18.3125 60.0625 18.3125 54.390625 
z
" id="DejaVuSans-56"/>
       </defs>
       <use xlink:href="#DejaVuSans-56"/>
      </g>
     </g>
    </g>
    <g id="text_6">
     <!-- Byte number accessed $\to$ -->
     <g transform="translate(173.16 335.862125)scale(0.1 -0.1)">
      <defs>
       <path d="M 19.671875 34.8125 
L 19.671875 8.109375 
L 35.5 8.109375 
Q 43.453125 8.109375 47.28125 11.40625 
Q 51.125 14.703125 51.125 21.484375 
Q 51.125 28.328125 47.28125 31.5625 
Q 43.453125 34.8125 35.5 34.8125 
z
M 19.671875 64.796875 
L 19.671875 42.828125 
L 34.28125 42.828125 
Q 41.5 42.828125 45.03125 45.53125 
Q 48.578125 48.25 48.578125 53.8125 
Q 48.578125 59.328125 45.03125 62.0625 
Q 41.5 64.796875 34.28125 64.796875 
z
M 9.8125 72.90625 
L 35.015625 72.90625 
Q 46.296875 72.90625 52.390625 68.21875 
Q 58.5 63.53125 58.5 54.890625 
Q 58.5 48.1875 55.375 44.234375 
Q 52.25 40.28125 46.1875 39.3125 
Q 53.46875 37.75 57.5 32.78125 
Q 61.53125 27.828125 61.53125 20.40625 
Q 61.53125 10.640625 54.890625 5.3125 
Q 48.25 0 35.984375 0 
L 9.8125 0 
z
" id="DejaVuSans-66"/>
       <path d="M 32.171875 -5.078125 
Q 28.375 -14.84375 24.75 -17.8125 
Q 21.140625 -20.796875 15.09375 -20.796875 
L 7.90625 -20.796875 
L 7.90625 -13.28125 
L 13.1875 -13.28125 
Q 16.890625 -13.28125 18.9375 -11.515625 
Q 21 -9.765625 23.484375 -3.21875 
L 25.09375 0.875 
L 2.984375 54.6875 
L 12.5 54.6875 
L 29.59375 11.921875 
L 46.6875 54.6875 
L 56.203125 54.6875 
z
" id="DejaVuSans-121"/>
       <path d="M 18.3125 70.21875 
L 18.3125 54.6875 
L 36.8125 54.6875 
L 36.8125 47.703125 
L 18.3125 47.703125 
L 18.3125 18.015625 
Q 18.3125 11.328125 20.140625 9.421875 
Q 21.96875 7.515625 27.59375 7.515625 
L 36.8125 7.515625 
L 36.8125 0 
L 27.59375 0 
Q 17.1875 0 13.234375 3.875 
Q 9.28125 7.765625 9.28125 18.015625 
L 9.28125 47.703125 
L 2.6875 47.703125 
L 2.6875 54.6875 
L 9.28125 54.6875 
L 9.28125 70.21875 
z
" id="DejaVuSans-116"/>
       <path d="M 56.203125 29.59375 
L 56.203125 25.203125 
L 14.890625 25.203125 
Q 15.484375 15.921875 20.484375 11.0625 
Q 25.484375 6.203125 34.421875 6.203125 
Q 39.59375 6.203125 44.453125 7.46875 
Q 49.3125 8.734375 54.109375 11.28125 
L 54.109375 2.78125 
Q 49.265625 0.734375 44.1875 -0.34375 
Q 39.109375 -1.421875 33.890625 -1.421875 
Q 20.796875 -1.421875 13.15625 6.1875 
Q 5.515625 13.8125 5.515625 26.8125 
Q 5.515625 40.234375 12.765625 48.109375 
Q 20.015625 56 32.328125 56 
Q 43.359375 56 49.78125 48.890625 
Q 56.203125 41.796875 56.203125 29.59375 
z
M 47.21875 32.234375 
Q 47.125 39.59375 43.09375 43.984375 
Q 39.0625 48.390625 32.421875 48.390625 
Q 24.90625 48.390625 20.390625 44.140625 
Q 15.875 39.890625 15.1875 32.171875 
z
" id="DejaVuSans-101"/>
       <path id="DejaVuSans-32"/>
       <path d="M 54.890625 33.015625 
L 54.890625 0 
L 45.90625 0 
L 45.90625 32.71875 
Q 45.90625 40.484375 42.875 44.328125 
Q 39.84375 48.1875 33.796875 48.1875 
Q 26.515625 48.1875 22.3125 43.546875 
Q 18.109375 38.921875 18.109375 30.90625 
L 18.109375 0 
L 9.078125 0 
L 9.078125 54.6875 
L 18.109375 54.6875 
L 18.109375 46.1875 
Q 21.34375 51.125 25.703125 53.5625 
Q 30.078125 56 35.796875 56 
Q 45.21875 56 50.046875 50.171875 
Q 54.890625 44.34375 54.890625 33.015625 
z
" id="DejaVuSans-110"/>
       <path d="M 8.5 21.578125 
L 8.5 54.6875 
L 17.484375 54.6875 
L 17.484375 21.921875 
Q 17.484375 14.15625 20.5 10.265625 
Q 23.53125 6.390625 29.59375 6.390625 
Q 36.859375 6.390625 41.078125 11.03125 
Q 45.3125 15.671875 45.3125 23.6875 
L 45.3125 54.6875 
L 54.296875 54.6875 
L 54.296875 0 
L 45.3125 0 
L 45.3125 8.40625 
Q 42.046875 3.421875 37.71875 1 
Q 33.40625 -1.421875 27.6875 -1.421875 
Q 18.265625 -1.421875 13.375 4.4375 
Q 8.5 10.296875 8.5 21.578125 
z
M 31.109375 56 
z
" id="DejaVuSans-117"/>
       <path d="M 52 44.1875 
Q 55.375 50.25 60.0625 53.125 
Q 64.75 56 71.09375 56 
Q 79.640625 56 84.28125 50.015625 
Q 88.921875 44.046875 88.921875 33.015625 
L 88.921875 0 
L 79.890625 0 
L 79.890625 32.71875 
Q 79.890625 40.578125 77.09375 44.375 
Q 74.3125 48.1875 68.609375 48.1875 
Q 61.625 48.1875 57.5625 43.546875 
Q 53.515625 38.921875 53.515625 30.90625 
L 53.515625 0 
L 44.484375 0 
L 44.484375 32.71875 
Q 44.484375 40.625 41.703125 44.40625 
Q 38.921875 48.1875 33.109375 48.1875 
Q 26.21875 48.1875 22.15625 43.53125 
Q 18.109375 38.875 18.109375 30.90625 
L 18.109375 0 
L 9.078125 0 
L 9.078125 54.6875 
L 18.109375 54.6875 
L 18.109375 46.1875 
Q 21.1875 51.21875 25.484375 53.609375 
Q 29.78125 56 35.6875 56 
Q 41.65625 56 45.828125 52.96875 
Q 50 49.953125 52 44.1875 
z
" id="DejaVuSans-109"/>
       <path d="M 48.6875 27.296875 
Q 48.6875 37.203125 44.609375 42.84375 
Q 40.53125 48.484375 33.40625 48.484375 
Q 26.265625 48.484375 22.1875 42.84375 
Q 18.109375 37.203125 18.109375 27.296875 
Q 18.109375 17.390625 22.1875 11.75 
Q 26.265625 6.109375 33.40625 6.109375 
Q 40.53125 6.109375 44.609375 11.75 
Q 48.6875 17.390625 48.6875 27.296875 
z
M 18.109375 46.390625 
Q 20.953125 51.265625 25.265625 53.625 
Q 29.59375 56 35.59375 56 
Q 45.5625 56 51.78125 48.09375 
Q 58.015625 40.1875 58.015625 27.296875 
Q 58.015625 14.40625 51.78125 6.484375 
Q 45.5625 -1.421875 35.59375 -1.421875 
Q 29.59375 -1.421875 25.265625 0.953125 
Q 20.953125 3.328125 18.109375 8.203125 
L 18.109375 0 
L 9.078125 0 
L 9.078125 75.984375 
L 18.109375 75.984375 
z
" id="DejaVuSans-98"/>
       <path d="M 41.109375 46.296875 
Q 39.59375 47.171875 37.8125 47.578125 
Q 36.03125 48 33.890625 48 
Q 26.265625 48 22.1875 43.046875 
Q 18.109375 38.09375 18.109375 28.8125 
L 18.109375 0 
L 9.078125 0 
L 9.078125 54.6875 
L 18.109375 54.6875 
L 18.109375 46.1875 
Q 20.953125 51.171875 25.484375 53.578125 
Q 30.03125 56 36.53125 56 
Q 37.453125 56 38.578125 55.875 
Q 39.703125 55.765625 41.0625 55.515625 
z
" id="DejaVuSans-114"/>
       <path d="M 34.28125 27.484375 
Q 23.390625 27.484375 19.1875 25 
Q 14.984375 22.515625 14.984375 16.5 
Q 14.984375 11.71875 18.140625 8.90625 
Q 21.296875 6.109375 26.703125 6.109375 
Q 34.1875 6.109375 38.703125 11.40625 
Q 43.21875 16.703125 43.21875 25.484375 
L 43.21875 27.484375 
z
M 52.203125 31.203125 
L 52.203125 0 
L 43.21875 0 
L 43.21875 8.296875 
Q 40.140625 3.328125 35.546875 0.953125 
Q 30.953125 -1.421875 24.3125 -1.421875 
Q 15.921875 -1.421875 10.953125 3.296875 
Q 6 8.015625 6 15.921875 
Q 6 25.140625 12.171875 29.828125 
Q 18.359375 34.515625 30.609375 34.515625 
L 43.21875 34.515625 
L 43.21875 35.40625 
Q 43.21875 41.609375 39.140625 45 
Q 35.0625 48.390625 27.6875 48.390625 
Q 23 48.390625 18.546875 47.265625 
Q 14.109375 46.140625 10.015625 43.890625 
L 10.015625 52.203125 
Q 14.9375 54.109375 19.578125 55.046875 
Q 24.21875 56 28.609375 56 
Q 40.484375 56 46.34375 49.84375 
Q 52.203125 43.703125 52.203125 31.203125 
z
" id="DejaVuSans-97"/>
       <path d="M 48.78125 52.59375 
L 48.78125 44.1875 
Q 44.96875 46.296875 41.140625 47.34375 
Q 37.3125 48.390625 33.40625 48.390625 
Q 24.65625 48.390625 19.8125 42.84375 
Q 14.984375 37.3125 14.984375 27.296875 
Q 14.984375 17.28125 19.8125 11.734375 
Q 24.65625 6.203125 33.40625 6.203125 
Q 37.3125 6.203125 41.140625 7.25 
Q 44.96875 8.296875 48.78125 10.40625 
L 48.78125 2.09375 
Q 45.015625 0.34375 40.984375 -0.53125 
Q 36.96875 -1.421875 32.421875 -1.421875 
Q 20.0625 -1.421875 12.78125 6.34375 
Q 5.515625 14.109375 5.515625 27.296875 
Q 5.515625 40.671875 12.859375 48.328125 
Q 20.21875 56 33.015625 56 
Q 37.15625 56 41.109375 55.140625 
Q 45.0625 54.296875 48.78125 52.59375 
z
" id="DejaVuSans-99"/>
       <path d="M 44.28125 53.078125 
L 44.28125 44.578125 
Q 40.484375 46.53125 36.375 47.5 
Q 32.28125 48.484375 27.875 48.484375 
Q 21.1875 48.484375 17.84375 46.4375 
Q 14.5 44.390625 14.5 40.28125 
Q 14.5 37.15625 16.890625 35.375 
Q 19.28125 33.59375 26.515625 31.984375 
L 29.59375 31.296875 
Q 39.15625 29.25 43.1875 25.515625 
Q 47.21875 21.78125 47.21875 15.09375 
Q 47.21875 7.46875 41.1875 3.015625 
Q 35.15625 -1.421875 24.609375 -1.421875 
Q 20.21875 -1.421875 15.453125 -0.5625 
Q 10.6875 0.296875 5.421875 2 
L 5.421875 11.28125 
Q 10.40625 8.6875 15.234375 7.390625 
Q 20.0625 6.109375 24.8125 6.109375 
Q 31.15625 6.109375 34.5625 8.28125 
Q 37.984375 10.453125 37.984375 14.40625 
Q 37.984375 18.0625 35.515625 20.015625 
Q 33.0625 21.96875 24.703125 23.78125 
L 21.578125 24.515625 
Q 13.234375 26.265625 9.515625 29.90625 
Q 5.8125 33.546875 5.8125 39.890625 
Q 5.8125 47.609375 11.28125 51.796875 
Q 16.75 56 26.8125 56 
Q 31.78125 56 36.171875 55.265625 
Q 40.578125 54.546875 44.28125 53.078125 
z
" id="DejaVuSans-115"/>
       <path d="M 45.40625 46.390625 
L 45.40625 75.984375 
L 54.390625 75.984375 
L 54.390625 0 
L 45.40625 0 
L 45.40625 8.203125 
Q 42.578125 3.328125 38.25 0.953125 
Q 33.9375 -1.421875 27.875 -1.421875 
Q 17.96875 -1.421875 11.734375 6.484375 
Q 5.515625 14.40625 5.515625 27.296875 
Q 5.515625 40.1875 11.734375 48.09375 
Q 17.96875 56 27.875 56 
Q 33.9375 56 38.25 53.625 
Q 42.578125 51.265625 45.40625 46.390625 
z
M 14.796875 27.296875 
Q 14.796875 17.390625 18.875 11.75 
Q 22.953125 6.109375 30.078125 6.109375 
Q 37.203125 6.109375 41.296875 11.75 
Q 45.40625 17.390625 45.40625 27.296875 
Q 45.40625 37.203125 41.296875 42.84375 
Q 37.203125 48.484375 30.078125 48.484375 
Q 22.953125 48.484375 18.875 42.84375 
Q 14.796875 37.203125 14.796875 27.296875 
z
" id="DejaVuSans-100"/>
       <path d="M 78.90625 33.546875 
L 78.90625 29.15625 
L 59.71875 9.96875 
L 53.859375 15.828125 
L 65.234375 27.203125 
L 5.71875 27.203125 
L 5.71875 35.5 
L 65.234375 35.5 
L 53.859375 46.875 
L 59.71875 52.734375 
z
" id="DejaVuSans-8594"/>
      </defs>
      <use transform="translate(0 0.015625)" xlink:href="#DejaVuSans-66"/>
      <use transform="translate(68.603516 0.015625)" xlink:href="#DejaVuSans-121"/>
      <use transform="translate(127.783203 0.015625)" xlink:href="#DejaVuSans-116"/>
      <use transform="translate(166.992188 0.015625)" xlink:href="#DejaVuSans-101"/>
      <use transform="translate(228.515625 0.015625)" xlink:href="#DejaVuSans-32"/>
      <use transform="translate(260.302734 0.015625)" xlink:href="#DejaVuSans-110"/>
      <use transform="translate(323.681641 0.015625)" xlink:href="#DejaVuSans-117"/>
      <use transform="translate(387.060547 0.015625)" xlink:href="#DejaVuSans-109"/>
      <use transform="translate(484.472656 0.015625)" xlink:href="#DejaVuSans-98"/>
      <use transform="translate(547.949219 0.015625)" xlink:href="#DejaVuSans-101"/>
      <use transform="translate(609.472656 0.015625)" xlink:href="#DejaVuSans-114"/>
      <use transform="translate(650.585938 0.015625)" xlink:href="#DejaVuSans-32"/>
      <use transform="translate(682.373047 0.015625)" xlink:href="#DejaVuSans-97"/>
      <use transform="translate(743.652344 0.015625)" xlink:href="#DejaVuSans-99"/>
      <use transform="translate(798.632812 0.015625)" xlink:href="#DejaVuSans-99"/>
      <use transform="translate(853.613281 0.015625)" xlink:href="#DejaVuSans-101"/>
      <use transform="translate(915.136719 0.015625)" xlink:href="#DejaVuSans-115"/>
      <use transform="translate(967.236328 0.015625)" xlink:href="#DejaVuSans-115"/>
      <use transform="translate(1019.335938 0.015625)" xlink:href="#DejaVuSans-101"/>
      <use transform="translate(1080.859375 0.015625)" xlink:href="#DejaVuSans-100"/>
      <use transform="translate(1144.335938 0.015625)" xlink:href="#DejaVuSans-32"/>
      <use transform="translate(1176.123047 0.015625)" xlink:href="#DejaVuSans-8594"/>
     </g>
    </g>
    <g id="text_7">
     <!-- 1e6 -->
     <g transform="translate(395.841875 334.860562)scale(0.1 -0.1)">
      <defs>
       <path d="M 12.40625 8.296875 
L 28.515625 8.296875 
L 28.515625 63.921875 
L 10.984375 60.40625 
L 10.984375 69.390625 
L 28.421875 72.90625 
L 38.28125 72.90625 
L 38.28125 8.296875 
L 54.390625 8.296875 
L 54.390625 0 
L 12.40625 0 
z
" id="DejaVuSans-49"/>
      </defs>
      <use xlink:href="#DejaVuSans-49"/>
      <use x="63.623047" xlink:href="#DejaVuSans-101"/>
      <use x="125.146484" xlink:href="#DejaVuSans-54"/>
     </g>
    </g>
   </g>
   <g id="matplotlib.axis_2">
    <g id="text_8">
     <!-- Latency $\to$ -->
     <g transform="translate(51.5 200.078)rotate(-90)scale(0.1 -0.1)">
      <defs>
       <path d="M 9.8125 72.90625 
L 19.671875 72.90625 
L 19.671875 8.296875 
L 55.171875 8.296875 
L 55.171875 0 
L 9.8125 0 
z
" id="DejaVuSans-76"/>
      </defs>
      <use transform="translate(0 0.09375)" xlink:href="#DejaVuSans-76"/>
      <use transform="translate(55.712891 0.09375)" xlink:href="#DejaVuSans-97"/>
      <use transform="translate(116.992188 0.09375)" xlink:href="#DejaVuSans-116"/>
      <use transform="translate(156.201172 0.09375)" xlink:href="#DejaVuSans-101"/>
      <use transform="translate(217.724609 0.09375)" xlink:href="#DejaVuSans-110"/>
      <use transform="translate(281.103516 0.09375)" xlink:href="#DejaVuSans-99"/>
      <use transform="translate(336.083984 0.09375)" xlink:href="#DejaVuSans-121"/>
      <use transform="translate(395.263672 0.09375)" xlink:href="#DejaVuSans-32"/>
      <use transform="translate(427.050781 0.09375)" xlink:href="#DejaVuSans-8594"/>
     </g>
    </g>
   </g>
   <g id="line2d_11">
    <path clip-path="url(#p821524ecff)" d="M 73.832727 295.445415 
L 73.913846 295.408638 
L 73.94384 295.488 
L 74.003015 295.412509 
L 74.055031 295.468643 
L 74.059984 295.427994 
L 74.166144 295.488 
L 74.24049 295.449287 
L 74.277295 295.486064 
L 75.340241 295.488 
L 75.34028 287.023316 
L 75.451316 295.488 
L 75.494004 295.431866 
L 75.562467 295.486064 
L 75.591029 293.370377 
L 75.673619 295.488 
L 75.761511 295.486064 
L 75.76155 295.34476 
L 75.805051 295.488 
L 75.872585 295.486064 
L 75.931296 295.422187 
L 75.983737 295.488 
L 77.835465 295.484129 
L 77.835504 295.369924 
L 77.835581 295.488 
L 77.94654 295.488 
L 78.541116 295.488 
L 78.541155 279.989093 
L 78.65219 295.488 
L 78.878364 295.486064 
L 78.878403 154.759005 
L 78.878712 295.488 
L 78.989438 295.486064 
L 79.100435 295.488 
L 79.08805 295.458965 
L 79.100474 295.486064 
L 79.107943 295.408638 
L 79.100551 295.488 
L 79.211548 295.488 
L 79.247889 295.460901 
L 79.322661 295.486064 
L 79.350178 295.488 
L 79.349288 295.451222 
L 79.350294 295.486064 
L 79.350333 277.073974 
L 79.350526 295.488 
L 79.461368 295.486064 
L 79.531496 295.427994 
L 79.57252 295.488 
L 79.600811 295.433801 
L 79.683672 295.486064 
L 81.049344 295.486064 
L 81.049382 288.614437 
L 81.049576 295.488 
L 81.160418 295.488 
L 81.199159 295.460901 
L 81.27157 295.486064 
L 82.232382 295.486064 
L 82.23242 295.360246 
L 82.232653 295.488 
L 82.343456 295.488 
L 82.532824 295.47445 
L 82.532863 295.236363 
L 82.56754 295.488 
L 82.643898 295.486064 
L 82.744059 295.406702 
L 82.755011 295.488 
L 82.83822 295.406702 
L 82.866163 295.486064 
L 83.970984 295.486064 
L 83.971023 295.311854 
L 83.971139 295.488 
L 84.082059 295.486064 
L 84.192978 295.488 
L 84.117703 295.424123 
L 84.193017 295.486064 
L 84.238105 295.366053 
L 84.193094 295.488 
L 84.30413 295.478322 
L 84.319378 295.42993 
L 84.319456 295.488 
L 84.415088 295.486064 
L 84.923708 295.486064 
L 84.923746 295.28669 
L 84.923785 295.488 
L 85.034782 295.486064 
L 85.144231 295.488 
L 85.040162 295.404766 
L 85.145779 295.486064 
L 85.181346 295.424123 
L 85.146708 295.488 
L 85.256853 295.488 
L 85.29122 295.486064 
L 85.291259 295.37186 
L 85.291337 295.488 
L 85.402295 295.486064 
L 86.831089 295.486064 
L 86.831128 290.048768 
L 86.831399 295.488 
L 86.942164 295.488 
L 88.910539 295.486064 
L 88.910578 293.292951 
L 88.911042 295.488 
L 89.021614 295.488 
L 89.090271 295.431866 
L 89.132765 295.486064 
L 89.213768 295.41638 
L 89.243917 295.488 
L 89.276156 295.44348 
L 89.35503 295.486064 
L 89.465872 295.488 
L 89.393577 295.427994 
L 89.466143 295.486064 
L 89.912143 295.488 
L 89.912182 283.181012 
L 90.023217 295.488 
L 90.041059 295.427994 
L 90.134369 295.486064 
L 90.301213 295.486064 
L 90.301251 295.335082 
L 90.301367 295.488 
L 90.412287 295.486064 
L 92.019033 295.486064 
L 92.019071 292.745156 
L 92.019265 295.488 
L 92.130107 295.486064 
L 94.855258 295.488 
L 94.855297 295.338953 
L 94.966333 295.486064 
L 95.077407 295.488 
L 95.032706 295.426059 
L 95.077446 295.486064 
L 95.274902 295.486064 
L 95.274941 290.792065 
L 95.27529 295.488 
L 95.385977 295.488 
L 95.396271 295.418316 
L 95.497128 295.486064 
L 95.552201 295.437673 
L 95.569501 295.488 
L 95.56954 280.28525 
L 95.680575 295.486064 
L 95.779613 295.449287 
L 95.791688 295.488 
L 95.879154 295.410573 
L 95.902801 295.486064 
L 96.013875 295.488 
L 95.932253 295.453158 
L 96.013914 295.486064 
L 96.025563 295.486064 
L 96.025602 177.18761 
L 96.025718 295.488 
L 96.136638 295.488 
L 96.875495 295.488 
L 96.875533 295.37186 
L 96.986569 295.486064 
L 99.52154 295.486064 
L 99.521578 295.199585 
L 99.521772 295.488 
L 99.632614 295.488 
L 99.668839 295.418316 
L 99.743766 295.486064 
L 100.507353 295.486064 
L 100.507392 284.735355 
L 100.50743 295.488 
L 100.618427 295.486064 
L 101.194233 295.488 
L 101.194272 295.367988 
L 101.305307 295.488 
L 101.410112 295.414445 
L 101.41642 295.486064 
L 101.432404 295.462836 
L 101.527533 295.488 
L 101.556444 295.451222 
L 101.638646 295.486064 
L 101.749643 295.488 
L 101.68296 295.433801 
L 101.749759 295.486064 
L 101.826544 295.486064 
L 101.826583 287.971795 
L 101.826776 295.488 
L 101.937618 295.488 
L 102.3448 295.478322 
L 102.344839 293.052928 
L 102.362216 295.488 
L 102.455875 295.486064 
L 102.56691 295.488 
L 102.516675 295.400895 
L 102.566988 295.486064 
L 103.283823 295.486064 
L 103.283862 295.37186 
L 103.284094 295.488 
L 103.394897 295.488 
L 103.485769 295.426059 
L 103.506049 295.486064 
L 103.567508 295.408638 
L 103.617201 295.488 
L 103.727849 295.427994 
L 103.728352 295.486064 
L 103.79043 295.433801 
L 103.839504 295.488 
L 104.173037 295.486064 
L 104.173075 295.364117 
L 104.173191 295.488 
L 104.284111 295.486064 
L 104.306635 295.486064 
L 104.306674 280.188467 
L 104.306713 295.488 
L 104.41771 295.486064 
L 104.904772 295.486064 
L 104.906514 284.986992 
L 104.905121 295.488 
L 105.015847 295.488 
L 107.011933 295.488 
L 107.011972 295.335082 
L 107.123007 295.488 
L 107.188839 295.426059 
L 107.234159 295.486064 
L 107.240777 295.412509 
L 107.345272 295.488 
L 107.362881 295.47445 
L 107.456423 295.486064 
L 107.509135 293.591044 
L 107.567575 295.488 
L 107.651752 295.422187 
L 107.678727 295.486064 
L 107.770102 295.486064 
L 107.770141 295.203457 
L 107.770179 295.488 
L 107.881176 295.486064 
L 109.09595 295.488 
L 109.095988 295.352503 
L 109.207063 295.478322 
L 109.31028 295.486064 
L 109.310319 293.138097 
L 109.310435 295.488 
L 109.421355 295.486064 
L 109.528791 295.369924 
L 109.532468 295.488 
L 109.550658 295.431866 
L 109.643619 295.486064 
L 109.876179 295.488 
L 109.876217 295.311854 
L 109.987253 295.486064 
L 110.375045 295.486064 
L 110.375084 279.73552 
L 110.3752 295.488 
L 110.48612 295.484129 
L 110.82151 295.488 
L 110.821549 293.654921 
L 110.932584 295.488 
L 111.074388 295.486064 
L 111.074426 293.873651 
L 111.074581 295.488 
L 111.185462 295.486064 
L 111.27289 295.427994 
L 111.296575 295.488 
L 111.317784 295.466708 
L 111.321306 295.488 
L 111.321344 288.055028 
L 111.43238 295.486064 
L 111.458465 295.298304 
L 111.543532 295.488 
L 111.649691 295.410573 
L 111.654645 295.488 
L 111.714981 295.488 
L 111.715019 280.149753 
L 111.826055 295.486064 
L 111.891887 295.433801 
L 111.937168 295.488 
L 111.983958 295.455094 
L 112.048281 295.488 
L 113.816839 295.488 
L 113.816878 291.697959 
L 113.927913 295.486064 
L 113.945794 295.398959 
L 114.039065 295.488 
L 114.097079 295.426059 
L 114.150217 295.486064 
L 114.18679 295.427994 
L 114.261368 295.488 
L 114.292562 295.437673 
L 114.372481 295.488 
L 114.706594 295.486064 
L 114.706633 295.282819 
L 114.706788 295.488 
L 114.817669 295.472515 
L 114.820997 295.426059 
L 114.928782 295.488 
L 114.971818 295.464772 
L 115.039933 295.486064 
L 116.891468 295.478322 
L 116.891507 292.185747 
L 116.921153 295.488 
L 117.002542 295.488 
L 117.044418 295.408638 
L 117.113694 295.486064 
L 117.202941 295.41638 
L 117.224807 295.488 
L 117.306971 295.41638 
L 117.33592 295.486064 
L 117.368817 295.455094 
L 117.447072 295.488 
L 118.396351 295.488 
L 118.449991 279.350322 
L 118.507425 295.488 
L 118.518687 295.400895 
L 118.618577 295.486064 
L 118.887206 295.486064 
L 118.887245 295.249913 
L 118.887284 295.488 
L 118.99828 295.488 
L 119.075491 295.408638 
L 119.109393 295.486064 
L 119.220429 295.488 
L 119.169613 295.418316 
L 119.220506 295.486064 
L 119.714419 295.488 
L 119.714458 279.90973 
L 119.825494 295.486064 
L 119.936529 295.488 
L 119.832499 295.439608 
L 119.936607 295.486064 
L 120.185188 295.486064 
L 120.185227 292.956144 
L 120.185305 295.488 
L 120.296263 295.488 
L 120.460049 295.488 
L 120.460088 295.373795 
L 120.571123 295.486064 
L 120.633472 295.406702 
L 120.682275 295.488 
L 120.789518 295.397024 
L 120.793581 295.478322 
L 123.295656 295.488 
L 123.295694 151.793559 
L 123.40673 295.488 
L 123.557899 295.488 
L 123.557938 279.201275 
L 123.668974 295.488 
L 124.858784 295.486064 
L 124.858823 295.366053 
L 124.858939 295.488 
L 124.969859 295.488 
L 125.069632 295.441544 
L 125.08101 295.486064 
L 125.160852 295.42993 
L 125.192123 295.488 
L 125.233341 295.427994 
L 125.293406 295.486064 
L 125.293445 279.93683 
L 125.294257 295.488 
L 125.40448 295.488 
L 125.446123 295.412509 
L 125.515632 295.486064 
L 126.907273 295.488 
L 126.907311 292.307695 
L 127.018347 295.486064 
L 128.781061 295.486064 
L 128.859858 284.917308 
L 128.781255 295.488 
L 128.892135 295.486064 
L 129.002668 295.488 
L 128.908855 295.412509 
L 129.002939 295.486064 
L 129.012885 295.408638 
L 129.003016 295.488 
L 129.114013 295.486064 
L 129.163513 295.455094 
L 129.225165 295.488 
L 129.236117 295.441544 
L 129.336317 295.486064 
L 129.889288 295.486064 
L 129.889327 280.292993 
L 129.889443 295.488 
L 130.000363 295.488 
L 130.109966 295.424123 
L 130.111514 295.486064 
L 130.457664 295.486064 
L 130.457702 295.329275 
L 130.457935 295.488 
L 130.568738 295.488 
L 130.645174 295.408638 
L 130.67989 295.486064 
L 131.390881 295.486064 
L 131.39092 280.525273 
L 131.390959 295.488 
L 131.501956 295.486064 
L 131.522003 295.468643 
L 131.613107 295.488 
L 131.635941 295.42993 
L 131.724259 295.486064 
L 131.744926 295.453158 
L 131.835101 295.488 
L 131.938551 273.051652 
L 131.946175 295.486064 
L 131.98658 295.486064 
L 131.986619 294.212394 
L 131.986735 295.488 
L 132.097654 295.486064 
L 132.135737 295.488 
L 132.103498 295.431866 
L 132.136975 295.486064 
L 132.137014 291.620532 
L 132.137246 295.488 
L 132.24805 295.486064 
L 132.294956 295.488 
L 132.294995 129.856614 
L 132.406031 295.486064 
L 132.707866 295.486064 
L 132.709143 287.354316 
L 132.707982 295.488 
L 132.81894 295.486064 
L 132.911554 295.408638 
L 132.930053 295.488 
L 132.98621 292.538039 
L 133.041166 295.486064 
L 133.050261 295.412509 
L 133.152279 295.488 
L 133.156769 295.410573 
L 133.263392 295.486064 
L 133.374235 295.488 
L 133.338319 295.433801 
L 133.374505 295.486064 
L 134.330789 295.488 
L 134.331486 295.278948 
L 134.441902 295.478322 
L 135.78594 295.488 
L 135.785979 293.167132 
L 135.897014 295.486064 
L 136.006463 295.472515 
L 136.008166 295.488 
L 136.416354 295.486064 
L 136.416393 295.333146 
L 136.416432 295.488 
L 136.527428 295.488 
L 136.550263 295.38541 
L 136.63858 295.486064 
L 136.796484 295.486064 
L 136.796522 287.667894 
L 136.796716 295.488 
L 136.907558 295.486064 
L 137.324609 295.486064 
L 137.324648 281.098231 
L 137.324802 295.488 
L 137.435683 295.486064 
L 137.546758 295.488 
L 137.528568 295.410573 
L 137.546796 295.486064 
L 139.744132 295.478322 
L 139.744171 293.447804 
L 139.768708 295.488 
L 139.855206 295.486064 
L 139.873087 295.420252 
L 139.966319 295.488 
L 140.043375 295.398959 
L 140.077471 295.486064 
L 140.345791 295.486064 
L 140.34583 279.365807 
L 140.345984 295.488 
L 140.456865 295.486064 
L 140.485466 295.414445 
L 140.457175 295.488 
L 140.567939 295.486064 
L 140.679014 295.488 
L 140.589342 292.818711 
L 140.679052 295.486064 
L 142.060786 295.488 
L 142.060824 293.656856 
L 142.17186 295.488 
L 142.232196 295.424123 
L 142.283012 295.486064 
L 144.434137 295.488 
L 144.434176 295.342825 
L 144.545212 295.486064 
L 145.454163 295.478322 
L 145.481293 184.107629 
L 145.481603 295.488 
L 145.565237 295.488 
L 145.571081 295.464772 
L 145.676389 295.486064 
L 147.961269 295.486064 
L 147.968738 295.306047 
L 147.963397 295.488 
L 148.072343 295.486064 
L 148.183417 295.488 
L 148.122926 295.439608 
L 148.183456 295.486064 
L 148.183882 295.486064 
L 148.18392 294.305306 
L 148.184152 295.488 
L 148.294956 295.486064 
L 149.852163 295.486064 
L 149.852202 285.31412 
L 149.852434 295.488 
L 149.963237 295.486064 
L 150.074234 295.488 
L 150.046872 295.420252 
L 150.07435 295.486064 
L 151.550168 295.486064 
L 151.550206 278.93996 
L 151.550555 295.488 
L 151.661242 295.486064 
L 151.769956 295.486064 
L 151.769994 268.624776 
L 151.770265 295.488 
L 151.88103 295.486064 
L 151.992027 295.488 
L 151.89891 295.455094 
L 151.992143 295.486064 
L 152.7137 295.486064 
L 152.713739 279.164497 
L 152.713855 295.488 
L 152.824774 295.486064 
L 152.833405 295.42993 
L 152.935926 295.488 
L 153.288074 295.488 
L 153.288113 291.390187 
L 153.399148 295.486064 
L 153.465754 295.379602 
L 153.5103 295.488 
L 153.619091 295.433801 
L 153.621452 295.486064 
L 153.838105 295.488 
L 153.838143 279.689064 
L 153.949179 295.488 
L 154.047095 295.435737 
L 154.060331 295.486064 
L 155.240621 295.488 
L 155.240659 295.369924 
L 155.351695 295.486064 
L 156.144309 295.488 
L 156.144347 292.501262 
L 156.255383 295.484129 
L 156.318041 295.486064 
L 156.31808 295.280883 
L 156.318119 295.488 
L 156.429116 295.488 
L 156.514105 295.437673 
L 156.540229 295.488 
L 157.17788 295.488 
L 157.177919 295.375731 
L 157.288954 295.488 
L 157.362836 295.464772 
L 157.400106 295.486064 
L 157.479793 295.439608 
L 157.511258 295.488 
L 157.597718 292.116063 
L 157.622371 295.486064 
L 157.712933 295.414445 
L 157.722802 295.488 
L 157.722841 293.807839 
L 157.833876 295.486064 
L 157.944796 295.488 
L 157.890845 295.44348 
L 157.944989 295.486064 
L 159.057358 295.486064 
L 159.060144 284.357899 
L 159.057512 295.488 
L 159.168432 295.486064 
L 159.179268 295.42993 
L 159.279584 295.488 
L 159.5498 295.486064 
L 159.549839 293.953014 
L 159.55038 295.488 
L 159.660874 295.486064 
L 160.252703 295.486064 
L 160.252741 295.278948 
L 160.252858 295.488 
L 160.363777 295.486064 
L 161.632346 295.486064 
L 161.632385 293.546523 
L 161.632772 295.488 
L 161.74342 295.478322 
L 162.144178 295.488 
L 162.144217 279.487754 
L 162.255252 295.486064 
L 162.366326 295.488 
L 162.339816 295.404766 
L 162.366365 295.486064 
L 162.505653 295.486064 
L 162.505692 279.280638 
L 162.505924 295.488 
L 162.616727 295.486064 
L 162.686158 295.486064 
L 162.686197 294.016891 
L 162.686313 295.488 
L 162.797233 295.486064 
L 163.164591 295.488 
L 163.164629 294.671147 
L 163.275665 295.488 
L 164.162634 295.488 
L 164.162672 291.08048 
L 164.273708 295.488 
L 164.358504 295.397024 
L 164.38486 295.486064 
L 164.495895 295.488 
L 164.403088 295.404766 
L 164.495973 295.486064 
L 164.729229 295.486064 
L 164.729267 295.367988 
L 164.729306 295.488 
L 164.840303 295.488 
L 164.84398 295.41638 
L 164.951416 295.486064 
L 165.061871 295.488 
L 164.985164 295.418316 
L 165.06191 295.486064 
L 165.08753 281.77378 
L 165.062103 295.488 
L 165.172984 295.488 
L 165.20561 295.418316 
L 165.240325 295.488 
L 165.240364 277.029454 
L 165.3514 295.488 
L 165.421992 295.439608 
L 165.462513 295.486064 
L 165.547424 295.410573 
L 165.573626 295.488 
L 165.621732 295.410573 
L 165.684777 295.486064 
L 165.694298 295.441544 
L 165.795929 295.488 
L 166.08658 295.486064 
L 166.086618 288.178911 
L 166.086735 295.488 
L 166.197654 295.486064 
L 171.682711 295.486064 
L 171.68275 295.306047 
L 171.682789 295.488 
L 171.793786 295.488 
L 172.173451 295.486064 
L 172.173489 275.424783 
L 172.173567 295.488 
L 172.284525 295.486064 
L 172.353995 295.422187 
L 172.395677 295.488 
L 172.475364 295.431866 
L 172.50679 295.486064 
L 172.601687 295.418316 
L 172.617941 295.488 
L 172.728164 293.472968 
L 172.729054 295.486064 
L 172.775071 295.414445 
L 172.840206 295.488 
L 172.898065 295.44348 
L 172.951358 295.486064 
L 173.014597 295.488 
L 172.998303 295.402831 
L 173.014751 295.486064 
L 173.01479 291.957338 
L 173.0151 295.488 
L 173.125826 295.486064 
L 173.236745 295.488 
L 173.14715 295.464772 
L 173.236939 295.486064 
L 173.669199 295.488 
L 173.669238 295.34476 
L 173.780274 295.486064 
L 174.795849 295.486064 
L 174.795888 293.792353 
L 174.795926 295.488 
L 174.906923 295.486064 
L 175.875824 295.488 
L 175.875862 293.37812 
L 175.986898 295.486064 
L 177.28012 295.488 
L 177.280159 295.273141 
L 177.391194 295.488 
L 177.40087 293.441997 
L 177.502346 295.486064 
L 179.093263 295.486064 
L 179.093301 295.356374 
L 179.093379 295.488 
L 179.204337 295.486064 
L 179.297028 295.486064 
L 179.297067 279.56131 
L 179.297221 295.488 
L 179.408102 295.486064 
L 182.053528 295.486064 
L 182.053567 293.66847 
L 182.053644 295.488 
L 182.164602 295.484129 
L 182.214605 295.449287 
L 182.275754 295.488 
L 182.314146 295.44348 
L 182.386906 295.486064 
L 182.496858 295.488 
L 182.438534 295.408638 
L 182.496935 295.486064 
L 182.537765 295.34476 
L 182.497786 295.488 
L 182.608009 295.486064 
L 184.468252 295.486064 
L 184.468291 295.280883 
L 184.468484 295.488 
L 184.579326 295.486064 
L 184.689665 295.488 
L 184.682815 295.44348 
L 184.689704 295.486064 
L 184.689743 295.230556 
L 184.690246 295.488 
L 184.800778 295.488 
L 184.812273 295.389281 
L 184.91193 295.486064 
L 185.022965 295.488 
L 184.940801 295.412509 
L 185.023043 295.486064 
L 185.705821 295.476386 
L 185.705859 292.487712 
L 185.754546 295.488 
L 185.816895 295.488 
L 185.863724 295.453158 
L 185.928047 295.486064 
L 186.036992 295.488 
L 185.934936 295.408638 
L 186.03707 295.486064 
L 186.055956 293.763318 
L 186.037418 295.488 
L 186.148144 295.486064 
L 186.259218 295.488 
L 186.206507 295.422187 
L 186.259257 295.486064 
L 186.343588 295.488 
L 186.343627 295.367988 
L 186.454663 295.488 
L 186.479858 295.427994 
L 186.565814 295.486064 
L 186.679675 295.486064 
L 186.679714 294.719539 
L 186.680024 295.488 
L 186.79075 295.486064 
L 186.892419 295.486064 
L 186.892458 295.369924 
L 186.892922 295.488 
L 187.003494 295.486064 
L 188.170044 295.484129 
L 188.170083 295.317661 
L 188.170122 295.488 
L 188.281119 295.488 
L 188.328258 295.433801 
L 188.39227 295.486064 
L 188.597739 295.486064 
L 188.597777 294.020762 
L 188.597855 295.488 
L 188.708813 295.488 
L 189.811351 295.486064 
L 189.81139 295.34476 
L 189.811583 295.488 
L 189.922425 295.486064 
L 190.024327 295.420252 
L 190.033577 295.488 
L 190.061481 295.433801 
L 190.144729 295.486064 
L 190.254603 295.488 
L 190.242296 295.412509 
L 190.254642 295.486064 
L 190.254681 295.402831 
L 190.254874 295.488 
L 190.365716 295.486064 
L 191.022564 295.486064 
L 191.022602 279.718099 
L 191.022757 295.488 
L 191.133638 295.486064 
L 192.279832 295.486064 
L 192.279871 279.778105 
L 192.279987 295.488 
L 192.390906 295.486064 
L 192.790038 295.486064 
L 192.790077 293.351021 
L 192.790193 295.488 
L 192.901112 295.486064 
L 192.904983 295.466708 
L 192.901229 295.488 
L 193.012187 295.488 
L 193.026352 295.420252 
L 193.123338 295.486064 
L 193.294981 295.488 
L 193.29502 293.560073 
L 193.406055 295.488 
L 193.435043 295.426059 
L 193.517168 295.488 
L 193.948965 295.486064 
L 193.949004 295.28669 
L 193.949352 295.488 
L 194.060039 295.486064 
L 194.29732 295.486064 
L 194.297359 295.342825 
L 194.297398 295.488 
L 194.408394 295.486064 
L 196.716379 295.486064 
L 196.716418 295.298304 
L 196.716534 295.488 
L 196.827453 295.486064 
L 197.192953 295.486064 
L 197.192992 292.561267 
L 197.193108 295.488 
L 197.304028 295.486064 
L 197.920471 295.486064 
L 197.920509 293.633628 
L 197.920703 295.488 
L 198.031545 295.488 
L 198.142619 295.464772 
L 198.142658 295.486064 
L 198.253693 295.488 
L 198.190106 295.433801 
L 198.253771 295.486064 
L 199.512587 295.488 
L 199.512626 292.954208 
L 199.623661 295.486064 
L 199.668826 295.406702 
L 199.734774 295.488 
L 199.761091 295.44348 
L 199.845926 295.486064 
L 202.627195 295.486064 
L 202.627234 279.867145 
L 202.627427 295.488 
L 202.738269 295.486064 
L 204.015895 295.486064 
L 204.015933 295.364117 
L 204.016049 295.488 
L 204.126969 295.488 
L 206.11396 295.486064 
L 206.113999 277.085588 
L 206.114154 295.488 
L 206.225034 295.486064 
L 208.139344 295.488 
L 208.139382 279.046422 
L 208.250418 295.486064 
L 208.361454 295.488 
L 208.341135 295.418316 
L 208.361531 295.486064 
L 209.173109 295.488 
L 209.173147 295.362181 
L 209.284183 295.488 
L 209.383918 295.414445 
L 209.395335 295.486064 
L 211.50354 295.486064 
L 211.503579 290.081675 
L 211.503695 295.488 
L 211.614614 295.488 
L 211.701152 295.412509 
L 211.725766 295.486064 
L 211.805531 295.488 
L 211.779097 295.427994 
L 211.836724 295.478322 
L 213.470019 295.488 
L 213.470058 295.366053 
L 213.581094 295.486064 
L 213.638914 295.457029 
L 213.692207 295.488 
L 213.708616 295.441544 
L 213.80332 295.486064 
L 213.89961 295.488 
L 213.825031 295.395088 
L 213.914162 295.478322 
L 213.984057 295.453158 
L 213.941253 295.488 
L 214.025236 295.486064 
L 214.13631 295.488 
L 214.050431 295.439608 
L 214.136349 295.486064 
L 214.839523 295.488 
L 214.842193 285.348962 
L 214.950597 295.488 
L 215.046152 295.410573 
L 215.061749 295.486064 
L 215.265127 295.486064 
L 215.265166 292.948401 
L 215.265204 295.488 
L 215.376201 295.486064 
L 215.486734 295.488 
L 215.427597 295.412509 
L 215.487005 295.486064 
L 215.487043 295.412509 
L 215.487082 295.488 
L 215.598079 295.486064 
L 215.640612 295.408638 
L 215.709231 295.488 
L 215.724286 295.350567 
L 215.820382 295.486064 
L 216.249934 295.468643 
L 216.249973 295.364117 
L 216.250089 295.488 
L 216.361008 295.486064 
L 216.471231 295.488 
L 216.443134 295.41638 
L 216.472121 295.486064 
L 216.946915 295.488 
L 216.946954 295.253784 
L 217.05799 295.488 
L 217.437384 295.478322 
L 217.439164 291.39793 
L 217.441138 295.488 
L 217.548458 295.488 
L 217.646064 295.455094 
L 217.659571 295.488 
L 218.196753 295.488 
L 218.245324 293.529102 
L 218.307827 295.486064 
L 219.144638 295.486064 
L 219.144677 295.37186 
L 219.144909 295.488 
L 219.255713 295.488 
L 219.259389 295.441544 
L 219.301497 295.462836 
L 219.301536 279.896181 
L 219.301729 295.488 
L 219.412571 295.486064 
L 219.476894 295.486064 
L 219.476932 292.867103 
L 219.477164 295.488 
L 219.587968 295.486064 
L 219.938181 295.486064 
L 219.93822 295.373795 
L 219.976534 295.488 
L 220.049255 295.488 
L 222.047354 295.488 
L 222.047393 295.315725 
L 222.158428 295.486064 
L 222.249029 295.427994 
L 222.26958 295.488 
L 222.910444 295.488 
L 222.910482 295.30024 
L 223.021518 295.488 
L 223.098612 295.431866 
L 223.13267 295.486064 
L 223.440001 295.486064 
L 223.44004 286.088388 
L 223.440233 295.488 
L 223.551075 295.486064 
L 223.661995 295.488 
L 223.643534 295.408638 
L 223.662188 295.486064 
L 224.569746 295.486064 
L 224.569785 295.369924 
L 224.56994 295.488 
L 224.680821 295.488 
L 224.785393 295.420252 
L 224.791934 295.488 
L 225.482142 295.486064 
L 225.482181 293.774932 
L 225.48222 295.488 
L 225.593217 295.488 
L 225.664699 295.41638 
L 225.704523 295.476386 
L 225.815714 295.488 
L 225.753868 295.414445 
L 225.815752 295.486064 
L 225.906044 295.42993 
L 225.815907 295.488 
L 225.926827 295.488 
L 226.936093 295.476386 
L 226.936132 290.149423 
L 226.949794 295.488 
L 227.047167 295.488 
L 227.775923 295.486064 
L 227.775962 292.90001 
L 227.776039 295.488 
L 227.886997 295.488 
L 227.975315 295.486064 
L 227.975354 292.903881 
L 227.975547 295.488 
L 228.086389 295.488 
L 228.093394 295.42993 
L 228.197541 295.486064 
L 229.86768 295.486064 
L 229.867719 293.014214 
L 229.867835 295.488 
L 229.978755 295.486064 
L 230.017534 295.420252 
L 230.089868 295.488 
L 230.180236 295.398959 
L 230.200981 295.486064 
L 230.312055 295.488 
L 230.291582 295.437673 
L 230.312094 295.486064 
L 232.077401 295.478322 
L 232.127094 278.099879 
L 232.127249 295.488 
L 232.188475 295.486064 
L 232.299549 295.488 
L 232.193932 295.414445 
L 232.299588 295.486064 
L 234.729483 295.486064 
L 234.729522 288.159554 
L 234.729793 295.488 
L 234.840557 295.486064 
L 234.951554 295.488 
L 234.927714 295.431866 
L 234.95167 295.486064 
L 235.33002 295.486064 
L 235.332187 283.926245 
L 235.330329 295.488 
L 235.441094 295.488 
L 235.529373 295.457029 
L 235.552207 295.486064 
L 235.663281 295.488 
L 235.646678 295.424123 
L 235.66332 295.486064 
L 238.476634 295.488 
L 238.476673 292.942594 
L 238.587709 295.488 
L 244.804037 295.488 
L 244.804076 293.229073 
L 244.915111 295.488 
L 244.962366 295.462836 
L 245.026263 295.486064 
L 245.943342 295.486064 
L 245.943381 280.546566 
L 245.943497 295.488 
L 246.054416 295.486064 
L 246.815952 295.488 
L 246.815991 295.366053 
L 246.927027 295.486064 
L 247.154052 295.486064 
L 247.15409 280.596893 
L 247.154245 295.488 
L 247.265126 295.486064 
L 247.344852 295.431866 
L 247.376278 295.488 
L 248.294131 295.486064 
L 248.294169 293.351021 
L 248.294247 295.488 
L 248.405205 295.488 
L 248.407837 295.44348 
L 248.516357 295.486064 
L 250.156502 295.486064 
L 250.156541 293.469096 
L 250.15716 295.488 
L 250.267576 295.488 
L 251.736776 295.486064 
L 251.736814 279.586473 
L 251.737008 295.488 
L 251.84785 295.486064 
L 252.868417 295.488 
L 252.868456 293.916236 
L 252.979492 295.486064 
L 253.224436 295.486064 
L 253.224474 273.562669 
L 253.224668 295.488 
L 253.33551 295.486064 
L 254.386188 295.486064 
L 254.386226 293.672342 
L 254.386497 295.488 
L 254.497262 295.488 
L 254.548774 295.379602 
L 254.608375 295.486064 
L 254.636511 295.455094 
L 254.719527 295.488 
L 254.811482 295.426059 
L 254.830678 295.486064 
L 254.904715 295.41638 
L 254.941791 295.488 
L 255.021943 295.453158 
L 255.052904 295.486064 
L 255.156354 295.437673 
L 255.164017 295.488 
L 255.198655 295.449287 
L 255.275169 295.486064 
L 255.305937 295.486064 
L 255.309768 295.34476 
L 255.306053 295.488 
L 255.417011 295.486064 
L 255.486752 295.486064 
L 255.486791 295.369924 
L 255.486907 295.488 
L 255.597826 295.486064 
L 255.939099 295.486064 
L 255.939138 295.346696 
L 255.93937 295.488 
L 256.050173 295.486064 
L 256.161248 295.488 
L 256.081251 295.414445 
L 256.161286 295.486064 
L 256.436534 295.486064 
L 256.436572 292.977436 
L 256.436727 295.488 
L 256.547608 295.486064 
L 257.400713 295.486064 
L 257.400751 295.373795 
L 257.40079 295.488 
L 257.511787 295.488 
L 257.589694 295.402831 
L 257.622977 295.484129 
L 258.257455 295.488 
L 258.277348 289.411933 
L 258.36853 295.488 
L 259.418588 295.486064 
L 259.418627 282.933246 
L 259.418743 295.488 
L 259.529662 295.486064 
L 259.640504 295.488 
L 259.56372 295.437673 
L 259.640775 295.486064 
L 259.687682 295.488 
L 259.687721 289.377091 
L 259.798756 295.488 
L 260.21155 295.488 
L 260.211589 263.766245 
L 260.322624 295.488 
L 260.41129 295.424123 
L 260.433776 295.486064 
L 260.472826 295.410573 
L 260.544889 295.488 
L 260.593576 295.437673 
L 260.656041 295.486064 
L 260.756588 295.41638 
L 260.756627 295.338953 
L 260.756704 295.488 
L 260.867663 295.488 
L 260.953348 295.427994 
L 260.978969 295.478322 
L 261.921281 295.486064 
L 261.92132 293.045185 
L 261.921707 295.488 
L 262.032356 295.486064 
L 262.062621 295.364117 
L 262.143507 295.488 
L 262.236314 295.431866 
L 262.254659 295.486064 
L 262.593029 295.486064 
L 262.593068 295.369924 
L 262.593223 295.488 
L 262.704104 295.486064 
L 262.754493 295.437673 
L 262.815255 295.488 
L 262.837935 295.391217 
L 262.926407 295.486064 
L 263.036823 295.488 
L 263.031483 295.431866 
L 263.03752 295.486064 
L 265.287955 295.486064 
L 265.287993 295.373795 
L 265.288032 295.488 
L 265.399029 295.488 
L 265.498493 295.406702 
L 265.510181 295.486064 
L 265.621216 295.488 
L 265.548031 295.433801 
L 265.621294 295.486064 
L 265.64347 295.488 
L 265.643509 295.366053 
L 265.754544 295.486064 
L 265.819873 295.431866 
L 265.865696 295.488 
L 265.956723 295.424123 
L 265.976809 295.488 
L 269.835537 295.478322 
L 269.835576 295.375731 
L 269.847419 295.488 
L 269.946612 295.488 
L 270.048591 295.406702 
L 270.057725 295.488 
L 271.756232 295.486064 
L 271.756271 266.774276 
L 271.756387 295.488 
L 271.867307 295.488 
L 271.869126 295.422187 
L 271.978458 295.486064 
L 272.089455 295.488 
L 272.079664 295.412509 
L 272.089533 295.486064 
L 272.183694 295.406702 
L 272.089687 295.488 
L 272.200607 295.486064 
L 272.245617 295.414445 
L 272.311759 295.488 
L 272.366057 295.486064 
L 272.366096 280.107169 
L 272.366212 295.488 
L 272.477132 295.486064 
L 272.657211 295.478322 
L 272.65725 295.366053 
L 272.658256 295.488 
L 272.768286 295.486064 
L 276.834301 295.488 
L 276.83434 292.834197 
L 276.945375 295.488 
L 278.452812 295.486064 
L 278.452851 280.151689 
L 278.452928 295.488 
L 278.563886 295.486064 
L 278.674922 295.488 
L 278.566712 295.451222 
L 278.674999 295.486064 
L 280.84776 295.486064 
L 280.847798 289.173845 
L 280.84803 295.488 
L 280.958834 295.486064 
L 284.514991 295.486064 
L 284.51503 295.30024 
L 284.515224 295.488 
L 284.626104 295.476386 
L 284.664884 295.431866 
L 284.737411 295.488 
L 284.846395 295.426059 
L 284.848524 295.486064 
L 284.958398 295.488 
L 284.863695 295.433801 
L 284.959637 295.486064 
L 285.312636 295.486064 
L 285.312675 279.727777 
L 285.312752 295.488 
L 285.423711 295.486064 
L 285.484743 295.462836 
L 285.534824 295.488 
L 285.548098 295.431866 
L 285.645937 295.488 
L 286.341718 295.486064 
L 286.341757 295.362181 
L 286.341873 295.488 
L 286.452793 295.486064 
L 286.504189 295.379602 
L 286.563906 295.488 
L 286.594712 295.431866 
L 286.675019 295.486064 
L 286.708109 292.574817 
L 286.786132 295.488 
L 286.79751 295.408638 
L 286.897283 295.486064 
L 286.928787 295.404766 
L 287.008396 295.488 
L 287.057586 295.406702 
L 287.119509 295.488 
L 288.109193 295.486064 
L 288.109231 292.588367 
L 288.109502 295.488 
L 288.220267 295.488 
L 288.297322 295.408638 
L 288.331419 295.486064 
L 289.072172 295.486064 
L 289.072211 280.337513 
L 289.072404 295.488 
L 289.183246 295.488 
L 289.988632 295.486064 
L 289.98867 293.525231 
L 289.98898 295.488 
L 290.099706 295.478322 
L 293.841593 295.486064 
L 293.841632 295.315725 
L 293.841903 295.488 
L 293.952668 295.488 
L 295.582867 295.488 
L 295.582905 292.907752 
L 295.693941 295.488 
L 295.803583 295.424123 
L 295.805054 295.488 
L 296.000963 295.486064 
L 296.001001 293.091641 
L 296.00104 295.488 
L 296.112037 295.486064 
L 296.49476 295.486064 
L 296.494798 287.456906 
L 296.494953 295.488 
L 296.605834 295.488 
L 297.322592 295.486064 
L 297.322631 291.299211 
L 297.322747 295.488 
L 297.433666 295.486064 
L 297.821304 295.486064 
L 297.821343 290.757223 
L 297.821497 295.488 
L 297.932378 295.488 
L 301.212282 295.488 
L 301.212321 293.292951 
L 301.323356 295.486064 
L 301.433811 295.488 
L 301.430754 295.426059 
L 301.434469 295.486064 
L 301.487684 295.486064 
L 301.487723 292.652244 
L 301.487839 295.488 
L 301.598759 295.488 
L 301.61482 295.441544 
L 301.709872 295.486064 
L 301.820907 295.488 
L 301.766454 295.389281 
L 301.820985 295.486064 
L 304.016385 295.486064 
L 304.016424 288.387964 
L 304.016579 295.488 
L 304.12746 295.486064 
L 304.98277 295.486064 
L 304.982809 280.198145 
L 304.983002 295.488 
L 305.093845 295.488 
L 307.345363 295.488 
L 307.345402 295.337018 
L 307.456437 295.488 
L 307.464913 295.408638 
L 307.567589 295.486064 
L 308.175711 295.486064 
L 308.17575 272.863892 
L 308.175866 295.488 
L 308.286785 295.486064 
L 308.397821 295.488 
L 308.390429 295.42993 
L 308.397898 295.486064 
L 310.528938 295.484129 
L 310.528976 292.447063 
L 310.529673 295.488 
L 310.640012 295.488 
L 310.739398 295.41638 
L 310.751164 295.486064 
L 310.862044 295.488 
L 310.853337 295.410573 
L 310.862277 295.486064 
L 311.595135 295.486064 
L 311.595173 276.855243 
L 311.595522 295.488 
L 311.706209 295.486064 
L 311.817245 295.488 
L 311.754432 295.445415 
L 311.817322 295.486064 
L 312.614425 295.470579 
L 312.614464 293.062606 
L 312.614696 295.488 
L 312.7255 295.486064 
L 313.955754 295.486064 
L 313.955792 294.17368 
L 313.956528 295.488 
L 314.066828 295.486064 
L 314.092255 295.455094 
L 314.177941 295.488 
L 314.229376 295.398959 
L 314.289093 295.486064 
L 314.51515 295.488 
L 314.589419 290.221043 
L 314.626224 295.486064 
L 314.704789 295.488 
L 314.638067 295.431866 
L 314.704828 295.486064 
L 314.704867 280.021999 
L 314.70506 295.488 
L 314.815902 295.488 
L 314.918772 295.484129 
L 314.927054 295.486064 
L 314.944315 295.486064 
L 314.944354 294.556943 
L 314.944624 295.488 
L 315.055389 295.486064 
L 315.087705 295.414445 
L 315.166541 295.488 
L 315.712933 295.488 
L 315.712972 293.732348 
L 315.824008 295.486064 
L 316.269195 295.484129 
L 316.269234 295.362181 
L 316.269272 295.488 
L 316.380269 295.488 
L 316.525285 295.486064 
L 316.527104 285.610277 
L 316.52544 295.488 
L 316.636359 295.486064 
L 316.770384 295.486064 
L 316.770423 293.515553 
L 316.770616 295.488 
L 316.881458 295.486064 
L 318.304254 295.488 
L 318.397293 295.356374 
L 318.415328 295.486064 
L 318.432125 295.42993 
L 318.52648 295.488 
L 318.636045 295.424123 
L 318.637632 295.486064 
L 318.978788 295.486064 
L 318.978827 279.710356 
L 318.979175 295.488 
L 319.089863 295.486064 
L 319.687303 295.486064 
L 319.687342 292.919366 
L 319.687497 295.488 
L 319.798377 295.488 
L 319.883018 295.441544 
L 319.90949 295.486064 
L 321.43055 295.486064 
L 321.430589 294.233686 
L 321.430744 295.488 
L 321.541624 295.488 
L 321.893385 295.486064 
L 321.893424 293.370377 
L 321.894159 295.488 
L 322.00446 295.486064 
L 322.304438 295.486064 
L 322.304476 293.836874 
L 322.304631 295.488 
L 322.415512 295.486064 
L 322.631546 295.486064 
L 322.631584 295.269269 
L 322.631855 295.488 
L 322.74262 295.486064 
L 322.852843 295.486064 
L 322.852881 288.442162 
L 322.853114 295.488 
L 322.963917 295.488 
L 323.387354 295.488 
L 323.387393 281.146623 
L 323.498428 295.486064 
L 324.175091 295.488 
L 324.17513 293.809774 
L 324.286166 295.486064 
L 327.084734 295.488 
L 327.084773 289.125454 
L 327.195809 295.488 
L 327.238187 295.44348 
L 327.30696 295.486064 
L 327.653961 295.486064 
L 327.654 295.373795 
L 327.655277 295.488 
L 327.765035 295.486064 
L 328.675767 295.486064 
L 328.675806 294.096253 
L 328.675961 295.488 
L 328.786841 295.486064 
L 328.853834 295.486064 
L 328.853873 293.898815 
L 328.854067 295.488 
L 328.964909 295.486064 
L 329.075441 295.488 
L 328.981628 295.439608 
L 329.076022 295.486064 
L 329.411838 295.486064 
L 329.411876 290.904334 
L 329.412108 295.488 
L 329.522912 295.486064 
L 329.62342 295.418316 
L 329.634025 295.488 
L 329.722497 295.449287 
L 329.745176 295.486064 
L 329.946349 295.486064 
L 329.946387 293.128419 
L 329.946503 295.488 
L 330.057423 295.486064 
L 330.081766 295.488 
L 330.061835 295.470579 
L 330.081844 295.486064 
L 330.081883 277.201728 
L 330.08196 295.488 
L 330.192918 295.486064 
L 330.198065 295.406702 
L 330.304031 295.488 
L 330.386311 295.426059 
L 330.415183 295.486064 
L 330.776774 295.486064 
L 330.776813 294.603399 
L 330.777084 295.488 
L 330.887848 295.486064 
L 331.200946 295.486064 
L 331.200985 294.299499 
L 331.202843 295.488 
L 331.312021 295.488 
L 331.357805 295.426059 
L 331.423172 295.486064 
L 331.488772 295.486064 
L 331.489662 289.48936 
L 331.488849 295.488 
L 331.599846 295.486064 
L 332.017013 295.486064 
L 332.017052 280.941442 
L 332.017284 295.488 
L 332.128088 295.486064 
L 332.204369 295.426059 
L 332.239007 295.488 
L 332.2762 295.408638 
L 332.35012 295.486064 
L 334.833617 295.488 
L 334.833656 289.611307 
L 334.944692 295.478322 
L 334.946317 295.373795 
L 334.95696 295.488 
L 335.055611 295.486064 
L 335.166647 295.488 
L 335.086495 295.431866 
L 335.166724 295.486064 
L 335.258409 295.439608 
L 335.166801 295.488 
L 335.277798 295.488 
L 335.313288 295.453158 
L 335.38895 295.486064 
L 335.499637 295.488 
L 335.398432 295.424123 
L 335.499676 295.486064 
L 335.5705 295.408638 
L 335.499831 295.488 
L 335.61075 295.488 
L 335.705609 295.41638 
L 335.721902 295.486064 
L 336.192052 295.488 
L 336.192091 293.376184 
L 336.303126 295.486064 
L 336.414162 295.488 
L 336.351233 295.42993 
L 336.414239 295.486064 
L 337.910298 295.488 
L 337.910336 295.325404 
L 338.021372 295.488 
L 338.114295 295.410573 
L 338.132524 295.486064 
L 338.18272 295.455094 
L 338.243675 295.488 
L 338.245572 295.453158 
L 338.271734 295.488 
L 338.271773 282.548048 
L 338.382808 295.486064 
L 338.493883 295.488 
L 338.396664 295.470579 
L 338.493921 295.486064 
L 338.580536 295.486064 
L 338.580575 276.981062 
L 338.580768 295.488 
L 338.69161 295.486064 
L 338.915307 295.486064 
L 338.915346 287.247854 
L 338.915617 295.488 
L 339.026381 295.488 
L 339.035709 295.462836 
L 339.137533 295.486064 
L 339.392849 295.486064 
L 339.392888 289.299664 
L 339.393081 295.488 
L 339.503923 295.486064 
L 339.614998 295.488 
L 339.558338 295.42993 
L 339.615036 295.486064 
L 340.920411 295.486064 
L 340.92045 288.637665 
L 340.920837 295.488 
L 341.031485 295.486064 
L 343.329601 295.486064 
L 343.329639 294.376926 
L 343.329755 295.488 
L 343.440675 295.486064 
L 343.551749 295.488 
L 343.442146 295.408638 
L 343.551788 295.486064 
L 344.775734 295.486064 
L 344.775772 277.2056 
L 344.775927 295.488 
L 344.886808 295.486064 
L 345.101874 295.488 
L 345.101913 279.228374 
L 345.212948 295.488 
L 345.304788 295.418316 
L 345.324061 295.486064 
L 345.413772 295.439608 
L 345.435174 295.488 
L 345.490518 295.383474 
L 345.546287 295.486064 
L 345.557162 295.414445 
L 345.657439 295.488 
L 346.346835 295.486064 
L 346.346874 280.217502 
L 346.346951 295.488 
L 346.457909 295.484129 
L 346.511047 295.427994 
L 346.569061 295.488 
L 346.653663 295.383474 
L 346.680213 295.486064 
L 347.116228 295.486064 
L 347.116266 287.143328 
L 347.116421 295.488 
L 347.227302 295.488 
L 347.301145 295.420252 
L 347.338453 295.486064 
L 347.429442 295.488 
L 347.429171 295.338953 
L 347.42979 295.486064 
L 347.429829 294.425317 
L 347.430138 295.488 
L 347.540864 295.486064 
L 347.651822 295.488 
L 347.546398 295.395088 
L 347.651977 295.486064 
L 349.397198 295.486064 
L 349.397237 286.03806 
L 349.397353 295.488 
L 349.508272 295.488 
L 349.547709 295.488 
L 349.585366 276.301642 
L 349.658784 295.488 
L 349.718578 295.488 
L 349.718617 294.202715 
L 349.829652 295.486064 
L 349.835071 295.447351 
L 349.940804 295.488 
L 349.978848 295.42993 
L 350.051917 295.488 
L 350.67908 295.486064 
L 350.679119 289.386769 
L 350.67939 295.488 
L 350.790155 295.486064 
L 350.965668 295.486064 
L 350.965706 194.488626 
L 350.965784 295.488 
L 351.076742 295.486064 
L 351.154029 295.406702 
L 351.187894 295.488 
L 351.291498 295.431866 
L 351.299007 295.486064 
L 351.335541 295.431866 
L 351.41012 295.488 
L 351.442977 295.420252 
L 351.521271 295.486064 
L 351.632191 295.488 
L 351.606067 295.431866 
L 351.632384 295.486064 
L 353.791328 295.486064 
L 353.791366 289.470003 
L 353.791521 295.488 
L 353.902402 295.486064 
L 354.237018 295.488 
L 354.237057 293.81171 
L 354.348092 295.486064 
L 355.446528 295.486064 
L 355.446567 280.095554 
L 355.446876 295.488 
L 355.557602 295.488 
L 355.591776 295.439608 
L 355.668754 295.486064 
L 355.762335 295.437673 
L 355.779635 295.488 
L 355.861218 295.414445 
L 355.890748 295.486064 
L 358.345064 295.488 
L 358.345103 295.28669 
L 358.456138 295.488 
L 358.509237 295.395088 
L 358.56729 295.486064 
L 358.615203 292.917431 
L 358.678442 295.488 
L 358.878104 295.486064 
L 358.878143 295.271205 
L 358.878375 295.488 
L 358.989179 295.488 
L 359.04816 295.462836 
L 359.10033 295.486064 
L 361.426582 295.486064 
L 361.426621 295.373795 
L 361.426659 295.488 
L 361.537656 295.486064 
L 362.104135 295.486064 
L 362.104174 295.366053 
L 362.104329 295.488 
L 362.215209 295.486064 
L 363.45928 295.478322 
L 363.459319 273.725265 
L 363.460983 295.488 
L 363.570354 295.486064 
L 364.004163 295.466708 
L 364.004202 290.269434 
L 364.004357 295.488 
L 364.115238 295.486064 
L 366.026528 295.486064 
L 366.026567 293.562009 
L 366.026644 295.488 
L 366.137602 295.486064 
L 366.155483 295.414445 
L 366.248754 295.488 
L 366.318959 295.412509 
L 366.359906 295.486064 
L 366.420823 295.410573 
L 366.471019 295.488 
L 366.510766 295.435737 
L 366.582132 295.486064 
L 366.616615 295.488 
L 366.601173 295.44348 
L 366.616693 295.486064 
L 366.616731 283.455877 
L 366.616847 295.488 
L 366.727767 295.486064 
L 367.434695 295.486064 
L 367.434733 289.866815 
L 367.434927 295.488 
L 367.545769 295.488 
L 367.949081 295.486064 
L 367.94912 279.789719 
L 367.949507 295.488 
L 368.060155 295.488 
L 368.157568 295.420252 
L 368.171307 295.486064 
L 368.246969 295.488 
L 368.235823 293.281337 
L 368.282226 295.476386 
L 368.438814 295.486064 
L 368.438853 292.069607 
L 368.439008 295.488 
L 368.549888 295.486064 
L 368.660963 295.488 
L 368.620016 295.426059 
L 368.661001 295.486064 
L 369.466038 295.486064 
L 369.466077 295.338953 
L 369.466271 295.488 
L 369.577113 295.488 
L 369.857198 295.488 
L 369.857237 295.319597 
L 369.968272 295.486064 
L 370.188253 295.476386 
L 370.188292 290.184265 
L 370.241159 295.488 
L 370.299328 295.486064 
L 371.655053 295.488 
L 371.655092 292.855489 
L 371.766128 295.488 
L 374.527659 295.488 
L 374.527697 279.305801 
L 374.638733 295.488 
L 374.639159 295.329275 
L 374.749846 295.486064 
L 374.750388 295.431866 
L 374.860959 295.488 
L 374.879188 295.422187 
L 374.972072 295.486064 
L 375.023971 295.408638 
L 375.083185 295.488 
L 375.092203 295.408638 
L 375.194298 295.486064 
L 375.305101 295.488 
L 375.253202 295.406702 
L 375.305179 295.486064 
L 375.332464 295.464772 
L 375.305372 295.488 
L 375.416253 295.486064 
L 375.517729 295.488 
L 375.42798 295.427994 
L 375.527173 295.478322 
L 375.550432 295.410573 
L 375.574698 295.488 
L 375.638131 295.486064 
L 375.684341 295.441544 
L 375.749244 295.488 
L 375.837755 295.414445 
L 375.860395 295.486064 
L 375.917016 295.453158 
L 375.971508 295.488 
L 376.035831 295.457029 
L 376.0433 295.486064 
L 376.043339 53.568 
L 376.043533 295.488 
L 376.154375 295.486064 
L 376.209254 295.486064 
L 376.209293 295.360246 
L 376.209447 295.488 
L 376.320328 295.488 
L 376.400015 295.42993 
L 376.431441 295.486064 
L 376.542128 295.488 
L 376.509 295.406702 
L 376.542554 295.486064 
L 377.018509 295.488 
L 377.018548 293.349085 
L 377.129584 295.486064 
L 377.240619 295.488 
L 377.174942 295.447351 
L 377.240697 295.486064 
L 377.825907 295.478322 
L 377.825946 295.356374 
L 377.837982 295.488 
L 377.936981 295.488 
L 378.044147 295.377667 
L 378.048133 295.486064 
L 378.210603 295.488 
L 378.210642 293.174875 
L 378.321678 295.488 
L 378.413092 295.431866 
L 378.432829 295.486064 
L 378.543865 295.488 
L 378.445949 295.412509 
L 378.543942 295.486064 
L 381.096909 295.488 
L 381.096948 295.311854 
L 381.207984 295.486064 
L 381.635097 295.486064 
L 381.635136 292.890331 
L 381.635562 295.488 
L 381.746172 295.486064 
L 381.826749 295.431866 
L 381.857323 295.488 
L 381.92958 295.427994 
L 381.968436 295.486064 
L 382.079472 295.488 
L 382.076918 295.435737 
L 382.079549 295.486064 
L 382.094488 295.426059 
L 382.079627 295.488 
L 382.190624 295.488 
L 382.257152 295.447351 
L 382.301737 295.488 
L 382.677028 295.486064 
L 382.677067 278.88189 
L 382.677144 295.488 
L 382.788103 295.488 
L 383.298038 295.486064 
L 383.298077 280.35687 
L 383.298348 295.488 
L 383.409112 295.488 
L 383.41217 295.364117 
L 383.520225 295.486064 
L 383.574253 295.447351 
L 383.631377 295.488 
L 383.672633 295.453158 
L 383.742529 295.486064 
L 383.783707 295.410573 
L 383.85368 295.488 
L 385.27756 295.486064 
L 385.277599 292.694829 
L 385.277986 295.488 
L 385.388634 295.486064 
L 385.418202 295.44348 
L 385.499747 295.488 
L 385.504353 295.437673 
L 385.61086 295.488 
L 385.932898 295.486064 
L 385.932937 279.050293 
L 385.933053 295.488 
L 386.043972 295.488 
L 386.04761 295.410573 
L 386.155124 295.486064 
L 386.242358 295.486064 
L 386.242397 288.548624 
L 386.242668 295.488 
L 386.353432 295.488 
L 386.406764 295.431866 
L 386.464584 295.486064 
L 386.547948 295.404766 
L 386.575736 295.488 
L 386.667382 295.42993 
L 386.686887 295.486064 
L 387.697664 295.486064 
L 387.697702 279.497433 
L 387.697818 295.488 
L 387.808738 295.486064 
L 388.361129 295.486064 
L 388.361168 294.034312 
L 388.361478 295.488 
L 388.472203 295.486064 
L 389.011591 295.486064 
L 389.01163 293.19036 
L 389.011668 295.488 
L 389.122665 295.486064 
L 391.371746 295.488 
L 391.371784 280.333642 
L 391.48282 295.488 
L 391.501784 295.437673 
L 391.593971 295.486064 
L 391.704891 295.488 
L 391.643123 295.460901 
L 391.705084 295.486064 
L 394.475324 295.486064 
L 394.475362 293.672342 
L 394.475865 295.488 
L 394.586398 295.488 
L 394.692054 295.410573 
L 394.697511 295.486064 
L 394.808585 295.488 
L 394.711869 295.367988 
L 394.808624 295.486064 
L 394.926045 295.484129 
L 394.926084 285.716739 
L 394.9262 295.488 
L 395.03712 295.486064 
L 395.042267 295.44348 
L 395.148233 295.488 
L 395.197345 295.418316 
L 395.259384 295.486064 
L 395.37042 295.488 
L 395.333576 295.408638 
L 395.370497 295.486064 
L 396.305069 295.488 
L 396.305108 293.821388 
L 396.416144 295.486064 
L 396.448189 295.412509 
L 396.416337 295.488 
L 396.527218 295.488 
L 396.552955 295.451222 
L 396.63837 295.486064 
L 398.366097 295.486064 
L 398.366136 294.125289 
L 398.366407 295.488 
L 398.477172 295.488 
L 398.487273 295.488 
L 398.487273 295.488 
" style="fill:none;stroke:#1f77b4;stroke-linecap:square;stroke-width:1.5;"/>
   </g>
   <g id="patch_3">
    <path d="M 57.6 307.584 
L 57.6 41.472 
" style="fill:none;stroke:#000000;stroke-linecap:square;stroke-linejoin:miter;stroke-width:0.8;"/>
   </g>
   <g id="patch_4">
    <path d="M 414.72 307.584 
L 414.72 41.472 
" style="fill:none;stroke:#000000;stroke-linecap:square;stroke-linejoin:miter;stroke-width:0.8;"/>
   </g>
   <g id="patch_5">
    <path d="M 57.6 307.584 
L 414.72 307.584 
" style="fill:none;stroke:#000000;stroke-linecap:square;stroke-linejoin:miter;stroke-width:0.8;"/>
   </g>
   <g id="patch_6">
    <path d="M 57.6 41.472 
L 414.72 41.472 
" style="fill:none;stroke:#000000;stroke-linecap:square;stroke-linejoin:miter;stroke-width:0.8;"/>
   </g>
   <g id="text_9">
    <!-- Block size calculation -->
    <g transform="translate(171.90375 35.472)scale(0.12 -0.12)">
     <defs>
      <path d="M 9.421875 75.984375 
L 18.40625 75.984375 
L 18.40625 0 
L 9.421875 0 
z
" id="DejaVuSans-108"/>
      <path d="M 30.609375 48.390625 
Q 23.390625 48.390625 19.1875 42.75 
Q 14.984375 37.109375 14.984375 27.296875 
Q 14.984375 17.484375 19.15625 11.84375 
Q 23.34375 6.203125 30.609375 6.203125 
Q 37.796875 6.203125 41.984375 11.859375 
Q 46.1875 17.53125 46.1875 27.296875 
Q 46.1875 37.015625 41.984375 42.703125 
Q 37.796875 48.390625 30.609375 48.390625 
z
M 30.609375 56 
Q 42.328125 56 49.015625 48.375 
Q 55.71875 40.765625 55.71875 27.296875 
Q 55.71875 13.875 49.015625 6.21875 
Q 42.328125 -1.421875 30.609375 -1.421875 
Q 18.84375 -1.421875 12.171875 6.21875 
Q 5.515625 13.875 5.515625 27.296875 
Q 5.515625 40.765625 12.171875 48.375 
Q 18.84375 56 30.609375 56 
z
" id="DejaVuSans-111"/>
      <path d="M 9.078125 75.984375 
L 18.109375 75.984375 
L 18.109375 31.109375 
L 44.921875 54.6875 
L 56.390625 54.6875 
L 27.390625 29.109375 
L 57.625 0 
L 45.90625 0 
L 18.109375 26.703125 
L 18.109375 0 
L 9.078125 0 
z
" id="DejaVuSans-107"/>
      <path d="M 9.421875 54.6875 
L 18.40625 54.6875 
L 18.40625 0 
L 9.421875 0 
z
M 9.421875 75.984375 
L 18.40625 75.984375 
L 18.40625 64.59375 
L 9.421875 64.59375 
z
" id="DejaVuSans-105"/>
      <path d="M 5.515625 54.6875 
L 48.1875 54.6875 
L 48.1875 46.484375 
L 14.40625 7.171875 
L 48.1875 7.171875 
L 48.1875 0 
L 4.296875 0 
L 4.296875 8.203125 
L 38.09375 47.515625 
L 5.515625 47.515625 
z
" id="DejaVuSans-122"/>
     </defs>
     <use xlink:href="#DejaVuSans-66"/>
     <use x="68.603516" xlink:href="#DejaVuSans-108"/>
     <use x="96.386719" xlink:href="#DejaVuSans-111"/>
     <use x="157.568359" xlink:href="#DejaVuSans-99"/>
     <use x="212.548828" xlink:href="#DejaVuSans-107"/>
     <use x="270.458984" xlink:href="#DejaVuSans-32"/>
     <use x="302.246094" xlink:href="#DejaVuSans-115"/>
     <use x="354.345703" xlink:href="#DejaVuSans-105"/>
     <use x="382.128906" xlink:href="#DejaVuSans-122"/>
     <use x="434.619141" xlink:href="#DejaVuSans-101"/>
     <use x="496.142578" xlink:href="#DejaVuSans-32"/>
     <use x="527.929688" xlink:href="#DejaVuSans-99"/>
     <use x="582.910156" xlink:href="#DejaVuSans-97"/>
     <use x="644.189453" xlink:href="#DejaVuSans-108"/>
     <use x="671.972656" xlink:href="#DejaVuSans-99"/>
     <use x="726.953125" xlink:href="#DejaVuSans-117"/>
     <use x="790.332031" xlink:href="#DejaVuSans-108"/>
     <use x="818.115234" xlink:href="#DejaVuSans-97"/>
     <use x="879.394531" xlink:href="#DejaVuSans-116"/>
     <use x="918.603516" xlink:href="#DejaVuSans-105"/>
     <use x="946.386719" xlink:href="#DejaVuSans-111"/>
     <use x="1007.568359" xlink:href="#DejaVuSans-110"/>
    </g>
   </g>
  </g>
 </g>
 <defs>
  <clipPath id="p821524ecff">
   <rect height="266.112" width="357.12" x="57.6" y="41.472"/>
  </clipPath>
 </defs>
</svg>
