<?xml version="1.0" encoding="utf-8" standalone="no"?>
<!DOCTYPE svg PUBLIC "-//W3C//DTD SVG 1.1//EN"
  "http://www.w3.org/Graphics/SVG/1.1/DTD/svg11.dtd">
<!-- Created with matplotlib (https://matplotlib.org/) -->
<svg height="345.6pt" version="1.1" viewBox="0 0 460.8 345.6" width="460.8pt" xmlns="http://www.w3.org/2000/svg" xmlns:xlink="http://www.w3.org/1999/xlink">
 <metadata>
  <rdf:RDF xmlns:cc="http://creativecommons.org/ns#" xmlns:dc="http://purl.org/dc/elements/1.1/" xmlns:rdf="http://www.w3.org/1999/02/22-rdf-syntax-ns#">
   <cc:Work>
    <dc:type rdf:resource="http://purl.org/dc/dcmitype/StillImage"/>
    <dc:date>2021-08-20T15:02:14.072372</dc:date>
    <dc:format>image/svg+xml</dc:format>
    <dc:creator>
     <cc:Agent>
      <dc:title>Matplotlib v3.3.4, https://matplotlib.org/</dc:title>
     </cc:Agent>
    </dc:creator>
   </cc:Work>
  </rdf:RDF>
 </metadata>
 <defs>
  <style type="text/css">*{stroke-linecap:butt;stroke-linejoin:round;}</style>
 </defs>
 <g id="figure_1">
  <g id="patch_1">
   <path d="M 0 345.6 
L 460.8 345.6 
L 460.8 0 
L 0 0 
z
" style="fill:#ffffff;"/>
  </g>
  <g id="axes_1">
   <g id="patch_2">
    <path d="M 57.6 307.584 
L 414.72 307.584 
L 414.72 41.472 
L 57.6 41.472 
z
" style="fill:#ffffff;"/>
   </g>
   <g id="matplotlib.axis_1">
    <g id="xtick_1">
     <g id="line2d_1">
      <path clip-path="url(#pd4c7d36323)" d="M 72.559572 307.584 
L 72.559572 41.472 
" style="fill:none;stroke:#b0b0b0;stroke-linecap:square;stroke-width:0.8;"/>
     </g>
     <g id="line2d_2">
      <defs>
       <path d="M 0 0 
L 0 3.5 
" id="madae3b8271" style="stroke:#000000;stroke-width:0.8;"/>
      </defs>
      <g>
       <use style="stroke:#000000;stroke-width:0.8;" x="72.559572" xlink:href="#madae3b8271" y="307.584"/>
      </g>
     </g>
     <g id="text_1">
      <!-- 0 -->
      <g transform="translate(69.378322 322.182437)scale(0.1 -0.1)">
       <defs>
        <path d="M 31.78125 66.40625 
Q 24.171875 66.40625 20.328125 58.90625 
Q 16.5 51.421875 16.5 36.375 
Q 16.5 21.390625 20.328125 13.890625 
Q 24.171875 6.390625 31.78125 6.390625 
Q 39.453125 6.390625 43.28125 13.890625 
Q 47.125 21.390625 47.125 36.375 
Q 47.125 51.421875 43.28125 58.90625 
Q 39.453125 66.40625 31.78125 66.40625 
z
M 31.78125 74.21875 
Q 44.046875 74.21875 50.515625 64.515625 
Q 56.984375 54.828125 56.984375 36.375 
Q 56.984375 17.96875 50.515625 8.265625 
Q 44.046875 -1.421875 31.78125 -1.421875 
Q 19.53125 -1.421875 13.0625 8.265625 
Q 6.59375 17.96875 6.59375 36.375 
Q 6.59375 54.828125 13.0625 64.515625 
Q 19.53125 74.21875 31.78125 74.21875 
z
" id="DejaVuSans-48"/>
       </defs>
       <use xlink:href="#DejaVuSans-48"/>
      </g>
     </g>
    </g>
    <g id="xtick_2">
     <g id="line2d_3">
      <path clip-path="url(#pd4c7d36323)" d="M 136.217326 307.584 
L 136.217326 41.472 
" style="fill:none;stroke:#b0b0b0;stroke-linecap:square;stroke-width:0.8;"/>
     </g>
     <g id="line2d_4">
      <g>
       <use style="stroke:#000000;stroke-width:0.8;" x="136.217326" xlink:href="#madae3b8271" y="307.584"/>
      </g>
     </g>
     <g id="text_2">
      <!-- 50 -->
      <g transform="translate(129.854826 322.182437)scale(0.1 -0.1)">
       <defs>
        <path d="M 10.796875 72.90625 
L 49.515625 72.90625 
L 49.515625 64.59375 
L 19.828125 64.59375 
L 19.828125 46.734375 
Q 21.96875 47.46875 24.109375 47.828125 
Q 26.265625 48.1875 28.421875 48.1875 
Q 40.625 48.1875 47.75 41.5 
Q 54.890625 34.8125 54.890625 23.390625 
Q 54.890625 11.625 47.5625 5.09375 
Q 40.234375 -1.421875 26.90625 -1.421875 
Q 22.3125 -1.421875 17.546875 -0.640625 
Q 12.796875 0.140625 7.71875 1.703125 
L 7.71875 11.625 
Q 12.109375 9.234375 16.796875 8.0625 
Q 21.484375 6.890625 26.703125 6.890625 
Q 35.15625 6.890625 40.078125 11.328125 
Q 45.015625 15.765625 45.015625 23.390625 
Q 45.015625 31 40.078125 35.4375 
Q 35.15625 39.890625 26.703125 39.890625 
Q 22.75 39.890625 18.8125 39.015625 
Q 14.890625 38.140625 10.796875 36.28125 
z
" id="DejaVuSans-53"/>
       </defs>
       <use xlink:href="#DejaVuSans-53"/>
       <use x="63.623047" xlink:href="#DejaVuSans-48"/>
      </g>
     </g>
    </g>
    <g id="xtick_3">
     <g id="line2d_5">
      <path clip-path="url(#pd4c7d36323)" d="M 199.87508 307.584 
L 199.87508 41.472 
" style="fill:none;stroke:#b0b0b0;stroke-linecap:square;stroke-width:0.8;"/>
     </g>
     <g id="line2d_6">
      <g>
       <use style="stroke:#000000;stroke-width:0.8;" x="199.87508" xlink:href="#madae3b8271" y="307.584"/>
      </g>
     </g>
     <g id="text_3">
      <!-- 100 -->
      <g transform="translate(190.33133 322.182437)scale(0.1 -0.1)">
       <defs>
        <path d="M 12.40625 8.296875 
L 28.515625 8.296875 
L 28.515625 63.921875 
L 10.984375 60.40625 
L 10.984375 69.390625 
L 28.421875 72.90625 
L 38.28125 72.90625 
L 38.28125 8.296875 
L 54.390625 8.296875 
L 54.390625 0 
L 12.40625 0 
z
" id="DejaVuSans-49"/>
       </defs>
       <use xlink:href="#DejaVuSans-49"/>
       <use x="63.623047" xlink:href="#DejaVuSans-48"/>
       <use x="127.246094" xlink:href="#DejaVuSans-48"/>
      </g>
     </g>
    </g>
    <g id="xtick_4">
     <g id="line2d_7">
      <path clip-path="url(#pd4c7d36323)" d="M 263.532834 307.584 
L 263.532834 41.472 
" style="fill:none;stroke:#b0b0b0;stroke-linecap:square;stroke-width:0.8;"/>
     </g>
     <g id="line2d_8">
      <g>
       <use style="stroke:#000000;stroke-width:0.8;" x="263.532834" xlink:href="#madae3b8271" y="307.584"/>
      </g>
     </g>
     <g id="text_4">
      <!-- 150 -->
      <g transform="translate(253.989084 322.182437)scale(0.1 -0.1)">
       <use xlink:href="#DejaVuSans-49"/>
       <use x="63.623047" xlink:href="#DejaVuSans-53"/>
       <use x="127.246094" xlink:href="#DejaVuSans-48"/>
      </g>
     </g>
    </g>
    <g id="xtick_5">
     <g id="line2d_9">
      <path clip-path="url(#pd4c7d36323)" d="M 327.190588 307.584 
L 327.190588 41.472 
" style="fill:none;stroke:#b0b0b0;stroke-linecap:square;stroke-width:0.8;"/>
     </g>
     <g id="line2d_10">
      <g>
       <use style="stroke:#000000;stroke-width:0.8;" x="327.190588" xlink:href="#madae3b8271" y="307.584"/>
      </g>
     </g>
     <g id="text_5">
      <!-- 200 -->
      <g transform="translate(317.646838 322.182437)scale(0.1 -0.1)">
       <defs>
        <path d="M 19.1875 8.296875 
L 53.609375 8.296875 
L 53.609375 0 
L 7.328125 0 
L 7.328125 8.296875 
Q 12.9375 14.109375 22.625 23.890625 
Q 32.328125 33.6875 34.8125 36.53125 
Q 39.546875 41.84375 41.421875 45.53125 
Q 43.3125 49.21875 43.3125 52.78125 
Q 43.3125 58.59375 39.234375 62.25 
Q 35.15625 65.921875 28.609375 65.921875 
Q 23.96875 65.921875 18.8125 64.3125 
Q 13.671875 62.703125 7.8125 59.421875 
L 7.8125 69.390625 
Q 13.765625 71.78125 18.9375 73 
Q 24.125 74.21875 28.421875 74.21875 
Q 39.75 74.21875 46.484375 68.546875 
Q 53.21875 62.890625 53.21875 53.421875 
Q 53.21875 48.921875 51.53125 44.890625 
Q 49.859375 40.875 45.40625 35.40625 
Q 44.1875 33.984375 37.640625 27.21875 
Q 31.109375 20.453125 19.1875 8.296875 
z
" id="DejaVuSans-50"/>
       </defs>
       <use xlink:href="#DejaVuSans-50"/>
       <use x="63.623047" xlink:href="#DejaVuSans-48"/>
       <use x="127.246094" xlink:href="#DejaVuSans-48"/>
      </g>
     </g>
    </g>
    <g id="xtick_6">
     <g id="line2d_11">
      <path clip-path="url(#pd4c7d36323)" d="M 390.848342 307.584 
L 390.848342 41.472 
" style="fill:none;stroke:#b0b0b0;stroke-linecap:square;stroke-width:0.8;"/>
     </g>
     <g id="line2d_12">
      <g>
       <use style="stroke:#000000;stroke-width:0.8;" x="390.848342" xlink:href="#madae3b8271" y="307.584"/>
      </g>
     </g>
     <g id="text_6">
      <!-- 250 -->
      <g transform="translate(381.304592 322.182437)scale(0.1 -0.1)">
       <use xlink:href="#DejaVuSans-50"/>
       <use x="63.623047" xlink:href="#DejaVuSans-53"/>
       <use x="127.246094" xlink:href="#DejaVuSans-48"/>
      </g>
     </g>
    </g>
    <g id="text_7">
     <!-- Block number accessed $\to$ -->
     <g transform="translate(171.06 335.860562)scale(0.1 -0.1)">
      <defs>
       <path d="M 19.671875 34.8125 
L 19.671875 8.109375 
L 35.5 8.109375 
Q 43.453125 8.109375 47.28125 11.40625 
Q 51.125 14.703125 51.125 21.484375 
Q 51.125 28.328125 47.28125 31.5625 
Q 43.453125 34.8125 35.5 34.8125 
z
M 19.671875 64.796875 
L 19.671875 42.828125 
L 34.28125 42.828125 
Q 41.5 42.828125 45.03125 45.53125 
Q 48.578125 48.25 48.578125 53.8125 
Q 48.578125 59.328125 45.03125 62.0625 
Q 41.5 64.796875 34.28125 64.796875 
z
M 9.8125 72.90625 
L 35.015625 72.90625 
Q 46.296875 72.90625 52.390625 68.21875 
Q 58.5 63.53125 58.5 54.890625 
Q 58.5 48.1875 55.375 44.234375 
Q 52.25 40.28125 46.1875 39.3125 
Q 53.46875 37.75 57.5 32.78125 
Q 61.53125 27.828125 61.53125 20.40625 
Q 61.53125 10.640625 54.890625 5.3125 
Q 48.25 0 35.984375 0 
L 9.8125 0 
z
" id="DejaVuSans-66"/>
       <path d="M 9.421875 75.984375 
L 18.40625 75.984375 
L 18.40625 0 
L 9.421875 0 
z
" id="DejaVuSans-108"/>
       <path d="M 30.609375 48.390625 
Q 23.390625 48.390625 19.1875 42.75 
Q 14.984375 37.109375 14.984375 27.296875 
Q 14.984375 17.484375 19.15625 11.84375 
Q 23.34375 6.203125 30.609375 6.203125 
Q 37.796875 6.203125 41.984375 11.859375 
Q 46.1875 17.53125 46.1875 27.296875 
Q 46.1875 37.015625 41.984375 42.703125 
Q 37.796875 48.390625 30.609375 48.390625 
z
M 30.609375 56 
Q 42.328125 56 49.015625 48.375 
Q 55.71875 40.765625 55.71875 27.296875 
Q 55.71875 13.875 49.015625 6.21875 
Q 42.328125 -1.421875 30.609375 -1.421875 
Q 18.84375 -1.421875 12.171875 6.21875 
Q 5.515625 13.875 5.515625 27.296875 
Q 5.515625 40.765625 12.171875 48.375 
Q 18.84375 56 30.609375 56 
z
" id="DejaVuSans-111"/>
       <path d="M 48.78125 52.59375 
L 48.78125 44.1875 
Q 44.96875 46.296875 41.140625 47.34375 
Q 37.3125 48.390625 33.40625 48.390625 
Q 24.65625 48.390625 19.8125 42.84375 
Q 14.984375 37.3125 14.984375 27.296875 
Q 14.984375 17.28125 19.8125 11.734375 
Q 24.65625 6.203125 33.40625 6.203125 
Q 37.3125 6.203125 41.140625 7.25 
Q 44.96875 8.296875 48.78125 10.40625 
L 48.78125 2.09375 
Q 45.015625 0.34375 40.984375 -0.53125 
Q 36.96875 -1.421875 32.421875 -1.421875 
Q 20.0625 -1.421875 12.78125 6.34375 
Q 5.515625 14.109375 5.515625 27.296875 
Q 5.515625 40.671875 12.859375 48.328125 
Q 20.21875 56 33.015625 56 
Q 37.15625 56 41.109375 55.140625 
Q 45.0625 54.296875 48.78125 52.59375 
z
" id="DejaVuSans-99"/>
       <path d="M 9.078125 75.984375 
L 18.109375 75.984375 
L 18.109375 31.109375 
L 44.921875 54.6875 
L 56.390625 54.6875 
L 27.390625 29.109375 
L 57.625 0 
L 45.90625 0 
L 18.109375 26.703125 
L 18.109375 0 
L 9.078125 0 
z
" id="DejaVuSans-107"/>
       <path id="DejaVuSans-32"/>
       <path d="M 54.890625 33.015625 
L 54.890625 0 
L 45.90625 0 
L 45.90625 32.71875 
Q 45.90625 40.484375 42.875 44.328125 
Q 39.84375 48.1875 33.796875 48.1875 
Q 26.515625 48.1875 22.3125 43.546875 
Q 18.109375 38.921875 18.109375 30.90625 
L 18.109375 0 
L 9.078125 0 
L 9.078125 54.6875 
L 18.109375 54.6875 
L 18.109375 46.1875 
Q 21.34375 51.125 25.703125 53.5625 
Q 30.078125 56 35.796875 56 
Q 45.21875 56 50.046875 50.171875 
Q 54.890625 44.34375 54.890625 33.015625 
z
" id="DejaVuSans-110"/>
       <path d="M 8.5 21.578125 
L 8.5 54.6875 
L 17.484375 54.6875 
L 17.484375 21.921875 
Q 17.484375 14.15625 20.5 10.265625 
Q 23.53125 6.390625 29.59375 6.390625 
Q 36.859375 6.390625 41.078125 11.03125 
Q 45.3125 15.671875 45.3125 23.6875 
L 45.3125 54.6875 
L 54.296875 54.6875 
L 54.296875 0 
L 45.3125 0 
L 45.3125 8.40625 
Q 42.046875 3.421875 37.71875 1 
Q 33.40625 -1.421875 27.6875 -1.421875 
Q 18.265625 -1.421875 13.375 4.4375 
Q 8.5 10.296875 8.5 21.578125 
z
M 31.109375 56 
z
" id="DejaVuSans-117"/>
       <path d="M 52 44.1875 
Q 55.375 50.25 60.0625 53.125 
Q 64.75 56 71.09375 56 
Q 79.640625 56 84.28125 50.015625 
Q 88.921875 44.046875 88.921875 33.015625 
L 88.921875 0 
L 79.890625 0 
L 79.890625 32.71875 
Q 79.890625 40.578125 77.09375 44.375 
Q 74.3125 48.1875 68.609375 48.1875 
Q 61.625 48.1875 57.5625 43.546875 
Q 53.515625 38.921875 53.515625 30.90625 
L 53.515625 0 
L 44.484375 0 
L 44.484375 32.71875 
Q 44.484375 40.625 41.703125 44.40625 
Q 38.921875 48.1875 33.109375 48.1875 
Q 26.21875 48.1875 22.15625 43.53125 
Q 18.109375 38.875 18.109375 30.90625 
L 18.109375 0 
L 9.078125 0 
L 9.078125 54.6875 
L 18.109375 54.6875 
L 18.109375 46.1875 
Q 21.1875 51.21875 25.484375 53.609375 
Q 29.78125 56 35.6875 56 
Q 41.65625 56 45.828125 52.96875 
Q 50 49.953125 52 44.1875 
z
" id="DejaVuSans-109"/>
       <path d="M 48.6875 27.296875 
Q 48.6875 37.203125 44.609375 42.84375 
Q 40.53125 48.484375 33.40625 48.484375 
Q 26.265625 48.484375 22.1875 42.84375 
Q 18.109375 37.203125 18.109375 27.296875 
Q 18.109375 17.390625 22.1875 11.75 
Q 26.265625 6.109375 33.40625 6.109375 
Q 40.53125 6.109375 44.609375 11.75 
Q 48.6875 17.390625 48.6875 27.296875 
z
M 18.109375 46.390625 
Q 20.953125 51.265625 25.265625 53.625 
Q 29.59375 56 35.59375 56 
Q 45.5625 56 51.78125 48.09375 
Q 58.015625 40.1875 58.015625 27.296875 
Q 58.015625 14.40625 51.78125 6.484375 
Q 45.5625 -1.421875 35.59375 -1.421875 
Q 29.59375 -1.421875 25.265625 0.953125 
Q 20.953125 3.328125 18.109375 8.203125 
L 18.109375 0 
L 9.078125 0 
L 9.078125 75.984375 
L 18.109375 75.984375 
z
" id="DejaVuSans-98"/>
       <path d="M 56.203125 29.59375 
L 56.203125 25.203125 
L 14.890625 25.203125 
Q 15.484375 15.921875 20.484375 11.0625 
Q 25.484375 6.203125 34.421875 6.203125 
Q 39.59375 6.203125 44.453125 7.46875 
Q 49.3125 8.734375 54.109375 11.28125 
L 54.109375 2.78125 
Q 49.265625 0.734375 44.1875 -0.34375 
Q 39.109375 -1.421875 33.890625 -1.421875 
Q 20.796875 -1.421875 13.15625 6.1875 
Q 5.515625 13.8125 5.515625 26.8125 
Q 5.515625 40.234375 12.765625 48.109375 
Q 20.015625 56 32.328125 56 
Q 43.359375 56 49.78125 48.890625 
Q 56.203125 41.796875 56.203125 29.59375 
z
M 47.21875 32.234375 
Q 47.125 39.59375 43.09375 43.984375 
Q 39.0625 48.390625 32.421875 48.390625 
Q 24.90625 48.390625 20.390625 44.140625 
Q 15.875 39.890625 15.1875 32.171875 
z
" id="DejaVuSans-101"/>
       <path d="M 41.109375 46.296875 
Q 39.59375 47.171875 37.8125 47.578125 
Q 36.03125 48 33.890625 48 
Q 26.265625 48 22.1875 43.046875 
Q 18.109375 38.09375 18.109375 28.8125 
L 18.109375 0 
L 9.078125 0 
L 9.078125 54.6875 
L 18.109375 54.6875 
L 18.109375 46.1875 
Q 20.953125 51.171875 25.484375 53.578125 
Q 30.03125 56 36.53125 56 
Q 37.453125 56 38.578125 55.875 
Q 39.703125 55.765625 41.0625 55.515625 
z
" id="DejaVuSans-114"/>
       <path d="M 34.28125 27.484375 
Q 23.390625 27.484375 19.1875 25 
Q 14.984375 22.515625 14.984375 16.5 
Q 14.984375 11.71875 18.140625 8.90625 
Q 21.296875 6.109375 26.703125 6.109375 
Q 34.1875 6.109375 38.703125 11.40625 
Q 43.21875 16.703125 43.21875 25.484375 
L 43.21875 27.484375 
z
M 52.203125 31.203125 
L 52.203125 0 
L 43.21875 0 
L 43.21875 8.296875 
Q 40.140625 3.328125 35.546875 0.953125 
Q 30.953125 -1.421875 24.3125 -1.421875 
Q 15.921875 -1.421875 10.953125 3.296875 
Q 6 8.015625 6 15.921875 
Q 6 25.140625 12.171875 29.828125 
Q 18.359375 34.515625 30.609375 34.515625 
L 43.21875 34.515625 
L 43.21875 35.40625 
Q 43.21875 41.609375 39.140625 45 
Q 35.0625 48.390625 27.6875 48.390625 
Q 23 48.390625 18.546875 47.265625 
Q 14.109375 46.140625 10.015625 43.890625 
L 10.015625 52.203125 
Q 14.9375 54.109375 19.578125 55.046875 
Q 24.21875 56 28.609375 56 
Q 40.484375 56 46.34375 49.84375 
Q 52.203125 43.703125 52.203125 31.203125 
z
" id="DejaVuSans-97"/>
       <path d="M 44.28125 53.078125 
L 44.28125 44.578125 
Q 40.484375 46.53125 36.375 47.5 
Q 32.28125 48.484375 27.875 48.484375 
Q 21.1875 48.484375 17.84375 46.4375 
Q 14.5 44.390625 14.5 40.28125 
Q 14.5 37.15625 16.890625 35.375 
Q 19.28125 33.59375 26.515625 31.984375 
L 29.59375 31.296875 
Q 39.15625 29.25 43.1875 25.515625 
Q 47.21875 21.78125 47.21875 15.09375 
Q 47.21875 7.46875 41.1875 3.015625 
Q 35.15625 -1.421875 24.609375 -1.421875 
Q 20.21875 -1.421875 15.453125 -0.5625 
Q 10.6875 0.296875 5.421875 2 
L 5.421875 11.28125 
Q 10.40625 8.6875 15.234375 7.390625 
Q 20.0625 6.109375 24.8125 6.109375 
Q 31.15625 6.109375 34.5625 8.28125 
Q 37.984375 10.453125 37.984375 14.40625 
Q 37.984375 18.0625 35.515625 20.015625 
Q 33.0625 21.96875 24.703125 23.78125 
L 21.578125 24.515625 
Q 13.234375 26.265625 9.515625 29.90625 
Q 5.8125 33.546875 5.8125 39.890625 
Q 5.8125 47.609375 11.28125 51.796875 
Q 16.75 56 26.8125 56 
Q 31.78125 56 36.171875 55.265625 
Q 40.578125 54.546875 44.28125 53.078125 
z
" id="DejaVuSans-115"/>
       <path d="M 45.40625 46.390625 
L 45.40625 75.984375 
L 54.390625 75.984375 
L 54.390625 0 
L 45.40625 0 
L 45.40625 8.203125 
Q 42.578125 3.328125 38.25 0.953125 
Q 33.9375 -1.421875 27.875 -1.421875 
Q 17.96875 -1.421875 11.734375 6.484375 
Q 5.515625 14.40625 5.515625 27.296875 
Q 5.515625 40.1875 11.734375 48.09375 
Q 17.96875 56 27.875 56 
Q 33.9375 56 38.25 53.625 
Q 42.578125 51.265625 45.40625 46.390625 
z
M 14.796875 27.296875 
Q 14.796875 17.390625 18.875 11.75 
Q 22.953125 6.109375 30.078125 6.109375 
Q 37.203125 6.109375 41.296875 11.75 
Q 45.40625 17.390625 45.40625 27.296875 
Q 45.40625 37.203125 41.296875 42.84375 
Q 37.203125 48.484375 30.078125 48.484375 
Q 22.953125 48.484375 18.875 42.84375 
Q 14.796875 37.203125 14.796875 27.296875 
z
" id="DejaVuSans-100"/>
       <path d="M 78.90625 33.546875 
L 78.90625 29.15625 
L 59.71875 9.96875 
L 53.859375 15.828125 
L 65.234375 27.203125 
L 5.71875 27.203125 
L 5.71875 35.5 
L 65.234375 35.5 
L 53.859375 46.875 
L 59.71875 52.734375 
z
" id="DejaVuSans-8594"/>
      </defs>
      <use transform="translate(0 0.015625)" xlink:href="#DejaVuSans-66"/>
      <use transform="translate(68.603516 0.015625)" xlink:href="#DejaVuSans-108"/>
      <use transform="translate(96.386719 0.015625)" xlink:href="#DejaVuSans-111"/>
      <use transform="translate(157.568359 0.015625)" xlink:href="#DejaVuSans-99"/>
      <use transform="translate(212.548828 0.015625)" xlink:href="#DejaVuSans-107"/>
      <use transform="translate(270.458984 0.015625)" xlink:href="#DejaVuSans-32"/>
      <use transform="translate(302.246094 0.015625)" xlink:href="#DejaVuSans-110"/>
      <use transform="translate(365.625 0.015625)" xlink:href="#DejaVuSans-117"/>
      <use transform="translate(429.003906 0.015625)" xlink:href="#DejaVuSans-109"/>
      <use transform="translate(526.416016 0.015625)" xlink:href="#DejaVuSans-98"/>
      <use transform="translate(589.892578 0.015625)" xlink:href="#DejaVuSans-101"/>
      <use transform="translate(651.416016 0.015625)" xlink:href="#DejaVuSans-114"/>
      <use transform="translate(692.529297 0.015625)" xlink:href="#DejaVuSans-32"/>
      <use transform="translate(724.316406 0.015625)" xlink:href="#DejaVuSans-97"/>
      <use transform="translate(785.595703 0.015625)" xlink:href="#DejaVuSans-99"/>
      <use transform="translate(840.576172 0.015625)" xlink:href="#DejaVuSans-99"/>
      <use transform="translate(895.556641 0.015625)" xlink:href="#DejaVuSans-101"/>
      <use transform="translate(957.080078 0.015625)" xlink:href="#DejaVuSans-115"/>
      <use transform="translate(1009.179688 0.015625)" xlink:href="#DejaVuSans-115"/>
      <use transform="translate(1061.279297 0.015625)" xlink:href="#DejaVuSans-101"/>
      <use transform="translate(1122.802734 0.015625)" xlink:href="#DejaVuSans-100"/>
      <use transform="translate(1186.279297 0.015625)" xlink:href="#DejaVuSans-32"/>
      <use transform="translate(1218.066406 0.015625)" xlink:href="#DejaVuSans-8594"/>
     </g>
    </g>
   </g>
   <g id="matplotlib.axis_2">
    <g id="text_8">
     <!-- Latency $\to$ -->
     <g transform="translate(51.5 200.078)rotate(-90)scale(0.1 -0.1)">
      <defs>
       <path d="M 9.8125 72.90625 
L 19.671875 72.90625 
L 19.671875 8.296875 
L 55.171875 8.296875 
L 55.171875 0 
L 9.8125 0 
z
" id="DejaVuSans-76"/>
       <path d="M 18.3125 70.21875 
L 18.3125 54.6875 
L 36.8125 54.6875 
L 36.8125 47.703125 
L 18.3125 47.703125 
L 18.3125 18.015625 
Q 18.3125 11.328125 20.140625 9.421875 
Q 21.96875 7.515625 27.59375 7.515625 
L 36.8125 7.515625 
L 36.8125 0 
L 27.59375 0 
Q 17.1875 0 13.234375 3.875 
Q 9.28125 7.765625 9.28125 18.015625 
L 9.28125 47.703125 
L 2.6875 47.703125 
L 2.6875 54.6875 
L 9.28125 54.6875 
L 9.28125 70.21875 
z
" id="DejaVuSans-116"/>
       <path d="M 32.171875 -5.078125 
Q 28.375 -14.84375 24.75 -17.8125 
Q 21.140625 -20.796875 15.09375 -20.796875 
L 7.90625 -20.796875 
L 7.90625 -13.28125 
L 13.1875 -13.28125 
Q 16.890625 -13.28125 18.9375 -11.515625 
Q 21 -9.765625 23.484375 -3.21875 
L 25.09375 0.875 
L 2.984375 54.6875 
L 12.5 54.6875 
L 29.59375 11.921875 
L 46.6875 54.6875 
L 56.203125 54.6875 
z
" id="DejaVuSans-121"/>
      </defs>
      <use transform="translate(0 0.09375)" xlink:href="#DejaVuSans-76"/>
      <use transform="translate(55.712891 0.09375)" xlink:href="#DejaVuSans-97"/>
      <use transform="translate(116.992188 0.09375)" xlink:href="#DejaVuSans-116"/>
      <use transform="translate(156.201172 0.09375)" xlink:href="#DejaVuSans-101"/>
      <use transform="translate(217.724609 0.09375)" xlink:href="#DejaVuSans-110"/>
      <use transform="translate(281.103516 0.09375)" xlink:href="#DejaVuSans-99"/>
      <use transform="translate(336.083984 0.09375)" xlink:href="#DejaVuSans-121"/>
      <use transform="translate(395.263672 0.09375)" xlink:href="#DejaVuSans-32"/>
      <use transform="translate(427.050781 0.09375)" xlink:href="#DejaVuSans-8594"/>
     </g>
    </g>
   </g>
   <g id="line2d_13">
    <path clip-path="url(#pd4c7d36323)" d="M 73.832727 295.488 
L 75.105882 222.530165 
L 76.379037 275.578011 
L 77.652193 273.532464 
L 78.925348 279.123626 
L 81.471658 272.305136 
L 82.744813 279.259995 
L 84.017968 220.348248 
L 85.291123 278.987256 
L 86.564278 257.16809 
L 87.837433 274.896162 
L 89.110588 281.032803 
L 90.383743 276.39623 
L 91.656898 280.350954 
L 92.930053 281.305542 
L 94.203209 280.078214 
L 95.476364 278.305407 
L 96.749519 267.259454 
L 98.022674 278.714516 
L 99.295829 277.896298 
L 100.568984 110.97968 
L 101.842139 281.441912 
L 103.115294 264.804798 
L 104.388449 279.259995 
L 105.661604 278.441777 
L 106.934759 276.12349 
L 108.207914 274.077944 
L 109.48107 279.259995 
L 110.754225 278.169037 
L 112.02738 280.760063 
L 113.300535 279.669105 
L 114.57369 277.078079 
L 115.846845 278.714516 
L 117.12 274.350683 
L 118.393155 281.441912 
L 119.66631 276.39623 
L 120.939465 281.578282 
L 122.21262 266.168496 
L 123.485775 274.487053 
L 124.75893 277.350818 
L 126.032086 281.032803 
L 127.305241 278.714516 
L 128.578396 277.487188 
L 129.851551 278.714516 
L 131.124706 277.214449 
L 132.397861 274.487053 
L 133.671016 278.305407 
L 134.944171 281.032803 
L 137.490481 277.623558 
L 138.763636 279.941844 
L 140.036791 279.532735 
L 141.309947 266.577605 
L 142.583102 279.941844 
L 143.856257 278.850886 
L 145.129412 282.396501 
L 146.402567 276.25986 
L 147.675722 279.941844 
L 148.948877 278.850886 
L 150.222032 282.66924 
L 151.495187 279.396365 
L 152.768342 279.669105 
L 154.041497 278.578147 
L 155.314652 276.39623 
L 156.587807 279.941844 
L 157.860963 279.396365 
L 159.134118 280.078214 
L 160.407273 266.850345 
L 161.680428 281.032803 
L 162.953583 274.350683 
L 164.226738 277.759928 
L 165.499893 275.032532 
L 166.773048 278.169037 
L 168.046203 280.350954 
L 169.319358 279.805475 
L 170.592513 277.896298 
L 171.865668 278.441777 
L 173.138824 268.759522 
L 174.411979 272.714246 
L 175.685134 278.305407 
L 176.958289 274.487053 
L 178.231444 276.805339 
L 179.504599 260.577335 
L 180.777754 53.568 
L 182.050909 268.623152 
L 183.324064 273.259725 
L 184.597219 275.578011 
L 185.870374 274.077944 
L 187.143529 269.71411 
L 188.416684 272.168767 
L 189.68984 269.71411 
L 190.962995 268.077673 
L 192.23615 274.623423 
L 193.509305 264.122949 
L 194.78246 264.122949 
L 196.055615 280.350954 
L 197.32877 278.578147 
L 198.601925 262.895621 
L 199.87508 277.623558 
L 201.148235 279.123626 
L 202.42139 273.805204 
L 203.694545 278.169037 
L 204.967701 279.259995 
L 206.240856 275.305272 
L 207.514011 277.078079 
L 208.787166 283.214719 
L 210.060321 282.123761 
L 211.333476 276.66897 
L 212.606631 278.578147 
L 213.879786 280.760063 
L 215.152941 281.987391 
L 216.426096 280.078214 
L 217.699251 268.486782 
L 218.972406 278.987256 
L 220.245561 277.487188 
L 221.518717 281.305542 
L 222.791872 277.487188 
L 224.065027 280.078214 
L 225.338182 260.304595 
L 226.611337 252.804257 
L 227.884492 279.396365 
L 229.157647 277.214449 
L 230.430802 279.396365 
L 231.703957 280.623693 
L 232.977112 279.396365 
L 234.250267 281.578282 
L 235.523422 280.487324 
L 236.796578 267.123085 
L 238.069733 279.396365 
L 239.342888 201.801957 
L 240.616043 268.895892 
L 241.889198 278.032667 
L 243.162353 270.668699 
L 244.435508 272.986985 
L 245.708663 277.350818 
L 246.981818 274.896162 
L 248.254973 279.123626 
L 249.528128 279.123626 
L 250.801283 278.850886 
L 252.074439 282.260131 
L 253.347594 279.669105 
L 254.620749 272.714246 
L 255.893904 245.031179 
L 257.167059 279.396365 
L 258.440214 279.396365 
L 259.713369 269.305001 
L 260.986524 119.161867 
L 262.259679 280.760063 
L 263.532834 280.760063 
L 264.805989 278.169037 
L 266.079144 273.259725 
L 267.352299 280.350954 
L 268.625455 274.896162 
L 269.89861 282.123761 
L 271.171765 279.805475 
L 272.44492 279.941844 
L 273.718075 277.759928 
L 274.99123 254.577064 
L 276.264385 281.305542 
L 277.53754 280.078214 
L 278.810695 280.760063 
L 280.08385 279.123626 
L 281.357005 278.987256 
L 282.63016 275.987121 
L 283.903316 278.714516 
L 285.176471 279.259995 
L 286.449626 277.759928 
L 287.722781 281.851021 
L 288.995936 281.441912 
L 290.269091 277.759928 
L 292.815401 278.578147 
L 294.088556 260.304595 
L 295.361711 275.578011 
L 296.634866 280.350954 
L 297.908021 281.032803 
L 299.181176 278.305407 
L 300.454332 258.668158 
L 301.727487 279.259995 
L 303.000642 280.350954 
L 304.273797 274.350683 
L 305.546952 278.987256 
L 306.820107 278.578147 
L 308.093262 281.032803 
L 309.366417 277.759928 
L 310.639572 281.987391 
L 311.912727 279.396365 
L 313.185882 256.077132 
L 314.459037 282.396501 
L 315.732193 281.987391 
L 317.005348 282.396501 
L 318.278503 281.714652 
L 319.551658 280.760063 
L 320.824813 282.53287 
L 322.097968 278.578147 
L 323.371123 281.851021 
L 324.644278 276.941709 
L 325.917433 274.896162 
L 327.190588 280.350954 
L 328.463743 275.714381 
L 329.736898 281.441912 
L 331.010053 274.214313 
L 332.283209 265.895756 
L 333.556364 278.169037 
L 334.829519 275.987121 
L 336.102674 281.987391 
L 337.375829 277.078079 
L 338.648984 276.39623 
L 339.922139 272.441506 
L 341.195294 89.978733 
L 342.468449 273.396095 
L 343.741604 277.896298 
L 345.014759 271.214178 
L 346.287914 281.578282 
L 347.56107 274.077944 
L 348.834225 265.213908 
L 350.10738 265.759387 
L 351.380535 258.940897 
L 352.65369 276.66897 
L 353.926845 273.396095 
L 355.2 257.986309 
L 356.473155 261.395554 
L 357.74631 252.395148 
L 359.019465 251.849669 
L 360.29262 269.71411 
L 361.565775 259.350007 
L 362.83893 265.895756 
L 364.112086 276.805339 
L 365.385241 279.532735 
L 366.658396 281.987391 
L 367.931551 282.53287 
L 369.204706 279.805475 
L 370.477861 261.531923 
L 371.751016 281.441912 
L 373.024171 277.896298 
L 374.297326 278.305407 
L 375.570481 271.623287 
L 376.843636 273.396095 
L 378.116791 280.078214 
L 379.389947 277.214449 
L 380.663102 270.25959 
L 381.936257 255.940762 
L 383.209412 276.805339 
L 384.482567 278.169037 
L 385.755722 278.850886 
L 387.028877 278.169037 
L 388.302032 279.805475 
L 389.575187 260.304595 
L 390.848342 275.168902 
L 392.121497 275.987121 
L 393.394652 282.260131 
L 394.667807 280.214584 
L 395.940963 279.396365 
L 397.214118 275.032532 
L 398.487273 280.350954 
L 398.487273 280.350954 
" style="fill:none;stroke:#1f77b4;stroke-linecap:square;stroke-width:1.5;"/>
   </g>
   <g id="patch_3">
    <path d="M 57.6 307.584 
L 57.6 41.472 
" style="fill:none;stroke:#000000;stroke-linecap:square;stroke-linejoin:miter;stroke-width:0.8;"/>
   </g>
   <g id="patch_4">
    <path d="M 414.72 307.584 
L 414.72 41.472 
" style="fill:none;stroke:#000000;stroke-linecap:square;stroke-linejoin:miter;stroke-width:0.8;"/>
   </g>
   <g id="patch_5">
    <path d="M 57.6 307.584 
L 414.72 307.584 
" style="fill:none;stroke:#000000;stroke-linecap:square;stroke-linejoin:miter;stroke-width:0.8;"/>
   </g>
   <g id="patch_6">
    <path d="M 57.6 41.472 
L 414.72 41.472 
" style="fill:none;stroke:#000000;stroke-linecap:square;stroke-linejoin:miter;stroke-width:0.8;"/>
   </g>
   <g id="text_9">
    <!-- Associativity calculation -->
    <g transform="translate(163.861875 35.472)scale(0.12 -0.12)">
     <defs>
      <path d="M 34.1875 63.1875 
L 20.796875 26.90625 
L 47.609375 26.90625 
z
M 28.609375 72.90625 
L 39.796875 72.90625 
L 67.578125 0 
L 57.328125 0 
L 50.6875 18.703125 
L 17.828125 18.703125 
L 11.1875 0 
L 0.78125 0 
z
" id="DejaVuSans-65"/>
      <path d="M 9.421875 54.6875 
L 18.40625 54.6875 
L 18.40625 0 
L 9.421875 0 
z
M 9.421875 75.984375 
L 18.40625 75.984375 
L 18.40625 64.59375 
L 9.421875 64.59375 
z
" id="DejaVuSans-105"/>
      <path d="M 2.984375 54.6875 
L 12.5 54.6875 
L 29.59375 8.796875 
L 46.6875 54.6875 
L 56.203125 54.6875 
L 35.6875 0 
L 23.484375 0 
z
" id="DejaVuSans-118"/>
     </defs>
     <use xlink:href="#DejaVuSans-65"/>
     <use x="68.408203" xlink:href="#DejaVuSans-115"/>
     <use x="120.507812" xlink:href="#DejaVuSans-115"/>
     <use x="172.607422" xlink:href="#DejaVuSans-111"/>
     <use x="233.789062" xlink:href="#DejaVuSans-99"/>
     <use x="288.769531" xlink:href="#DejaVuSans-105"/>
     <use x="316.552734" xlink:href="#DejaVuSans-97"/>
     <use x="377.832031" xlink:href="#DejaVuSans-116"/>
     <use x="417.041016" xlink:href="#DejaVuSans-105"/>
     <use x="444.824219" xlink:href="#DejaVuSans-118"/>
     <use x="504.003906" xlink:href="#DejaVuSans-105"/>
     <use x="531.787109" xlink:href="#DejaVuSans-116"/>
     <use x="570.996094" xlink:href="#DejaVuSans-121"/>
     <use x="630.175781" xlink:href="#DejaVuSans-32"/>
     <use x="661.962891" xlink:href="#DejaVuSans-99"/>
     <use x="716.943359" xlink:href="#DejaVuSans-97"/>
     <use x="778.222656" xlink:href="#DejaVuSans-108"/>
     <use x="806.005859" xlink:href="#DejaVuSans-99"/>
     <use x="860.986328" xlink:href="#DejaVuSans-117"/>
     <use x="924.365234" xlink:href="#DejaVuSans-108"/>
     <use x="952.148438" xlink:href="#DejaVuSans-97"/>
     <use x="1013.427734" xlink:href="#DejaVuSans-116"/>
     <use x="1052.636719" xlink:href="#DejaVuSans-105"/>
     <use x="1080.419922" xlink:href="#DejaVuSans-111"/>
     <use x="1141.601562" xlink:href="#DejaVuSans-110"/>
    </g>
   </g>
  </g>
 </g>
 <defs>
  <clipPath id="pd4c7d36323">
   <rect height="266.112" width="357.12" x="57.6" y="41.472"/>
  </clipPath>
 </defs>
</svg>
